<?xml version="1.0" encoding="UTF-8" standalone="no"?>
<svg
   viewBox="0 0 607.1188 427.6"
   version="1.1"
   id="svg44"
   sodipodi:docname="9cd29ff40839c35f52f9e0616053d1b2.svg"
   width="607.11877"
   height="427.60001"
   xmlns:inkscape="http://www.inkscape.org/namespaces/inkscape"
   xmlns:sodipodi="http://sodipodi.sourceforge.net/DTD/sodipodi-0.dtd"
   xmlns="http://www.w3.org/2000/svg"
   xmlns:svg="http://www.w3.org/2000/svg">
  <sodipodi:namedview
     id="namedview46"
     pagecolor="#ffffff"
     bordercolor="#666666"
     borderopacity="1.0"
     inkscape:pageshadow="2"
     inkscape:pageopacity="0.0"
     inkscape:pagecheckerboard="0" />
  <defs
     id="defs4">
    <style
       id="style2">.cls-1{fill:#3f3d56;}.cls-2{fill:#ccc;}.cls-3{fill:#fff;}.cls-4{fill:#00bfa6;}.cls-5{fill:#e6e6e6;}</style>
  </defs>
  <title
     id="title6">Asset 1</title>
  <g
     id="Layer_2"
     data-name="Layer 2"
     transform="translate(0.00730504)">
    <g
       id="Layer_1-2"
       data-name="Layer 1">
      <path
         class="cls-1"
         d="m 184.36,301.9 a 10.24,10.24 0 0 0 -10.2,10.2 V 336 a 10.24,10.24 0 0 0 10.2,10.2 h 12.9 a 10.24,10.24 0 0 0 10.2,-10.2 v -23.9 a 10.24,10.24 0 0 0 -10.2,-10.2 z"
         id="path8" />
      <path
         class="cls-1"
         d="m 423.76,347 h -12.9 a 11,11 0 0 1 -11,-11 v -23.9 a 11,11 0 0 1 11,-11 h 12.9 a 11,11 0 0 1 11,11 V 336 a 11,11 0 0 1 -11,11 z"
         id="path10" />
      <path
         class="cls-2"
         d="m 415.16,327.9 h -223 c -10.1,0 -18.4,-6 -18.4,-13.3 v -42.9 l 11.1,-11.7 h 239.8 l 8.9,11.7 v 42.8 c 0,7.4 -8.3,13.4 -18.4,13.4 z"
         id="path12" />
      <path
         class="cls-2"
         d="m 423.56,281.5 h -237.5 l -2.4,-37 1.5,-3.8 8.9,-22 h 219.8 L 426,243.6 Z"
         id="path14" />
      <polygon
         class="cls-3"
         points="371.56,271.5 371.56,250.9 424.16,240.6 425.56,243.7 423.86,271.5 "
         id="polygon16" />
      <polygon
         class="cls-3"
         points="185.86,271.5 184.06,244.5 185.56,240.8 237.36,250.9 237.36,271.5 "
         id="polygon18" />
      <path
         class="cls-2"
         d="m 412.66,225 h -217.2 l 23.2,-77.2 a 15.45,15.45 0 0 1 14.8,-11.1 l 143.8,-1.4 a 15.42,15.42 0 0 1 15.2,11.7 z"
         id="path20" />
      <path
         class="cls-3"
         d="m 395.86,217.7 -183.8,-2.2 a 1.54,1.54 0 0 1 -1.5,-1.5 0.6,0.6 0 0 1 0.1,-0.4 l 17.6,-55 a 1.5,1.5 0 0 1 1.4,-1 h 147.8 a 1.5,1.5 0 0 1 1.4,1 l 18.3,57.1 a 1.5,1.5 0 0 1 -1,1.9 c 0.1,0.1 -0.1,0.1 -0.3,0.1 z"
         id="path22" />
      <path
         class="cls-4"
         d="m 328.76,144.8 h -49.5 c -0.4,0 -0.8,-0.4 -1,-1.1 a 3,3 0 0 1 0.1,-2.1 l 4.1,-10.3 c 0.2,-0.5 0.5,-0.8 0.9,-0.8 h 41.4 c 0.4,0 0.7,0.3 0.9,0.8 l 4.1,10.3 a 3.76,3.76 0 0 1 0.1,2.1 c -0.3,0.7 -0.6,1.1 -1.1,1.1 z"
         id="path24" />
      <path
         class="cls-2"
         d="M 195.56,223.5 H 163 v -7.2 a 8.71,8.71 0 0 1 8.7,-8.7 h 23.8 v 15.9 z"
         id="path26" />
      <path
         class="cls-2"
         d="m 445.06,223.5 h -32.6 v -15.9 h 23.8 a 8.71,8.71 0 0 1 8.7,8.7 v 7.2 z"
         id="path28" />
      <rect
         class="cls-1"
         x="-4.6399999"
         y="363.57999"
         width="169.2"
         height="2"
         transform="rotate(-19.76,79.953174,364.61052)"
         id="rect30" />
      <rect
         class="cls-1"
         x="526.14001"
         y="280.04999"
         width="2"
         height="169.19"
         transform="rotate(-70.24,527.18117,364.6531)"
         id="rect32" />
      <path
         class="cls-5"
         d="m 312.86,376.6 h -9.5 v -12.3 h 9.5 z m 0,-24.7 h -9.5 v -12.3 h 9.5 z"
         id="path34" />
      <path
         class="cls-5"
         d="m 312.86,427.6 h -9.5 v -12.3 h 9.5 z m 0,-24.7 h -9.5 v -12.3 h 9.5 z"
         id="path36" />
      <circle
         class="cls-4"
         cx="303.76001"
         cy="47.299999"
         r="47.299999"
         id="circle38" />
      <polygon
         class="cls-3"
         points="293.36,42.7 300.06,51.3 322.66,27.4 330.26,34.6 299.26,67.3 285.06,49.1 "
         id="polygon40" />
    </g>
  </g>
</svg>
