<?xml version="1.0" encoding="UTF-8" standalone="no"?>
<svg
   viewBox="0 0 736.52015 487.05859"
   version="1.1"
   id="svg294"
   sodipodi:docname="de872946dee01c842fe352d23ad788a8.svg"
   width="736.52014"
   height="487.05859"
   xmlns:inkscape="http://www.inkscape.org/namespaces/inkscape"
   xmlns:sodipodi="http://sodipodi.sourceforge.net/DTD/sodipodi-0.dtd"
   xmlns="http://www.w3.org/2000/svg"
   xmlns:svg="http://www.w3.org/2000/svg">
  <sodipodi:namedview
     id="namedview296"
     pagecolor="#ffffff"
     bordercolor="#666666"
     borderopacity="1.0"
     inkscape:pageshadow="2"
     inkscape:pageopacity="0.0"
     inkscape:pagecheckerboard="0" />
  <defs
     id="defs4">
    <style
       id="style2">.cls-1{fill:#27a7d1;}.cls-2{fill:#f4f4fd;}.cls-3{fill:#f7a17c;}.cls-4{fill:#e8e6e7;}.cls-5{fill:#323135;}.cls-6{fill:#e3785c;}.cls-7{fill:#abe2f2;}.cls-8{fill:#302f2e;}.cls-9{fill:#404040;}.cls-10{fill:#daccfb;}.cls-11{fill:#fcc63d;}.cls-12{fill:#edb128;}.cls-13{fill:#fefefe;}.cls-14{fill:#a6a5aa;}.cls-15{fill:#89d4ec;}.cls-16{fill:#39207b;}</style>
  </defs>
  <title
     id="title6">Asset 1</title>
  <g
     id="Layer_2"
     data-name="Layer 2"
     transform="translate(0.03017197,-0.00157757)">
    <g
       id="Layer_1-2"
       data-name="Layer 1">
      <path
         class="cls-1"
         d="m 627.74,487 c -4.88,-9.53 -9.73,-19.07 -14.64,-28.58 -4.06,-7.86 -8.07,-15.75 -12.33,-23.49 -1.16,-2.11 -0.47,-2.77 1.23,-3.68 2.41,-1.28 4.71,-2.78 7,-4.18 a 4.12,4.12 0 0 0 1.07,-0.29 q 37.95,-21.21 75.87,-42.47 c 7.59,-4.25 15.14,-8.56 22.7,-12.84 6.15,-3.28 6.17,-3.3 10,2.73 5.39,8.48 10.73,17 16.1,25.48 0.45,0.71 0.65,1.66 1.69,1.82 0,27.63 0,55.25 0.06,82.88 0,2.23 -0.45,2.69 -2.68,2.68 Q 680.8,486.92 627.74,487 Z"
         id="path8" />
      <path
         class="cls-2"
         d="m 346.52,74.48 a 136,136 0 0 0 33.81,2.19 170.57,170.57 0 0 0 39.45,-7 c 7.78,-2.4 15.4,-5.37 23.31,-7.47 5,-1.32 9.85,-3.39 14.87,-4.68 13.14,-3.39 26.45,-4.73 39.62,-0.39 a 48.12,48.12 0 0 1 20.52,13.64 c 4.64,5.06 9,10.2 12.33,16.25 1.15,2.11 3,2.49 5.33,2.49 q 51,-0.12 102,0 c 1.42,0 3,-0.61 4.23,0.77 -0.87,-0.07 -1.74,-0.2 -2.61,-0.2 q -53.58,0 -107.16,0 a 9.8,9.8 0 0 0 -7.58,3.34 c -1.74,-0.52 -3.4,-2.53 -5.2,-1.28 -2.83,2 -4.15,0.44 -5.83,-1.54 -3.54,-4.17 -4.93,-4.39 -9.44,-1.4 -2.29,1.51 -3.9,1.24 -6,-0.47 -2.1,-1.71 -2.48,-4.5 -3.78,-6.7 -1.71,-2.9 -4.11,-3.64 -7,-1.89 a 10.54,10.54 0 0 0 -3.18,3.06 c -2.91,4.12 -5.34,4.86 -10,3.07 -1.93,-0.75 -4.05,-0.21 -4.79,1 -2.82,4.52 -6.64,4.58 -11.48,5.11 -3.58,0.39 -7.32,3.65 -11.66,4 a 1.2,1.2 0 0 0 -1.1,1.61 c 0.26,0.72 1,0.56 1.62,0.59 0.87,0 1.75,0 2.62,0 22.87,0 45.74,0.06 68.61,-0.06 3.11,0 4,0.86 4,4 -0.14,17.37 -0.08,34.75 0,52.12 0,1.32 -0.46,2.77 0.63,3.94 0.18,0.49 0.37,1 0.56,1.46 0,0.77 0,1.54 0,2.31 a 1.19,1.19 0 0 0 -0.56,0.07 l -0.76,1.75 c -1.49,-0.19 -3,-0.42 -4.45,-0.54 -8.87,-0.74 -15.57,7.92 -12.15,16 2.94,7 9.11,10.91 15.06,15 1,0.7 2.38,1.08 2.45,2.53 0.08,1.62 -1.52,1.63 -2.47,2.33 -6.17,4.57 -13.92,8 -13.39,17.66 -2.75,0 -5.51,-0.19 -8.23,0.05 -3,0.28 -3.79,-0.9 -3.76,-3.81 0.13,-14.47 0,-28.94 0.11,-43.41 0,-2.8 -0.55,-4.1 -3.69,-3.89 a 103.68,103.68 0 0 1 -12.34,0 c -2.84,-0.16 -3.78,0.84 -3.6,3.62 0.09,1.37 1,3.6 -1.53,3.9 -3.28,0.38 -4,2.23 -3.69,5.14 0.17,1.44 0.34,3.34 -2,3.1 -3.22,-0.33 -3.47,1.56 -3.2,3.91 0.36,3.12 -0.67,4.88 -4.11,4.36 -3,-0.46 -3.47,1.13 -3.42,3.71 0.11,6.86 0,13.72 0,20.58 -3.38,-4.14 -5.26,-9.09 -7.54,-13.83 a 21,21 0 0 1 -0.66,-6.27 c 0,-18.7 0,-37.41 0.07,-56.12 0,-3.19 -0.86,-4.41 -4.23,-4.35 -10,0.18 -19.95,0.14 -29.92,0 -2.58,0 -3.52,0.72 -3.44,3.38 0.17,5.73 0.12,11.47 0,17.21 0,1.93 0.69,4 -0.68,5.78 a 11.46,11.46 0 0 1 -6.81,-1.6 c 0,-14.22 -0.08,-28.44 0.1,-42.66 0,-3.26 -1.11,-3.91 -4.08,-3.89 -14.1,0.14 -28.2,0 -42.29,0.11 -3.18,0 -7.16,-1.42 -9.34,0.76 -1.89,1.89 -0.64,5.73 -0.54,8.68 0.09,2.76 -1.05,3.39 -3.53,3.3 -4.11,-0.15 -8.24,0.15 -12.34,-0.11 -3.06,-0.19 -4,0.95 -3.76,3.84 0.1,1.28 0.85,3.62 -1.39,3.59 -4.1,-0.06 -3.88,2.45 -3.82,5.19 0,1.43 0.39,3.38 -2,3.15 -3.16,-0.32 -3.61,1.42 -3.26,3.85 0.43,3 -0.8,4.15 -3.75,3.73 -2.19,-0.31 -3.3,0.56 -3.05,2.91 a 27.29,27.29 0 0 1 0,3 h -34.45 c 0,-5.75 -0.19,-11.51 0.05,-17.25 0.13,-3.09 -1,-3.89 -3.87,-3.73 -3.61,0.21 -7.26,-0.09 -10.87,0.1 -2.64,0.14 -3.46,-0.78 -3.42,-3.41 0.14,-8.62 -0.07,-17.25 0.12,-25.87 0.07,-3.35 -0.82,-4.61 -4.4,-4.59 q -33.37,0.22 -66.75,0 c -3.14,0 -4,0.91 -4,4 0.13,20.38 0.06,40.75 0.05,61.12 l -8.21,4.57 c 0,-13.6 -0.07,-27.19 0.06,-40.78 0,-2.83 -0.85,-3.61 -3.62,-3.57 -10.1,0.14 -20.2,0.18 -30.3,0 -3.15,-0.06 -3.78,1.13 -3.67,3.91 0.18,4.48 0,9 0.05,13.47 q 0.09,28.61 0.17,57.23 c -1.73,3.2 -5.13,4.91 -7.1,7.9 -1.22,-0.17 -0.67,-1 -0.67,-1.67 0,-16.49 0,-33 0.11,-49.46 0,-2.1 -0.7,-2.89 -2.82,-2.83 -4.12,0.11 -8.25,0.24 -12.36,0 -3.37,-0.23 -4.87,0.75 -4.4,4.31 0.2,1.51 0.47,3.87 -1.81,3.8 -3.82,-0.12 -3.47,2.19 -3.4,4.62 0,1.5 0.19,3.35 -2.12,3 -3.71,-0.5 -4.25,1.53 -3.83,4.42 0.47,3.19 -0.94,4.31 -4,3.88 -2.1,-0.3 -2.84,0.68 -2.83,2.78 q 0.17,29.6 0.21,59.19 c -9.38,6.68 -18.72,13.41 -27.15,21.3 -9.6,0 -19.2,0.13 -28.79,-0.13 -3.51,-0.09 -4.36,1 -4.33,4.41 0.13,17.57 0,35.15 0,52.72 -3.65,-1.45 -5.35,-4.95 -7,-7.92 -7.09,-13 -11,-27 -10,-41.77 a 95.89,95.89 0 0 1 8.58,-33.65 c 7.36,-16.22 19,-28.92 32.14,-40.57 9.76,-8.64 19.55,-17.47 26.45,-28.7 a 119.16,119.16 0 0 0 10.66,-22.31 c 3.52,-9.81 6.32,-19.81 9.23,-29.77 3.59,-12.33 7.27,-24.6 12,-36.55 5.13,-13 10.93,-25.58 19.41,-36.73 6.35,-8.34 13.4,-15.94 22.29,-21.84 a 107,107 0 0 1 23.77,-12.11 109.77,109.77 0 0 1 21.4,-4.68 88.19,88.19 0 0 1 31.83,1.69 85.08,85.08 0 0 1 26.16,11.18 c 0.89,0.56 1.4,1.71 2.09,2.58 -0.35,0.52 -0.65,1.07 -1,1.54 -12.07,14.88 -16.15,31.26 -9.24,49.64 1.62,4.32 3.34,8.63 5.36,12.77 11.38,23.33 26.15,44.53 41.35,65.45 1.58,2.18 2.45,2 4,-0.13 16.58,-22.54 32.18,-45.71 44.16,-71.14 z m -150.78,-27 h 38.62 c 0.87,0 1.75,0 2.62,0 0.67,0 1.24,-0.3 1.34,-1 0.1,-0.7 -0.3,-1.54 -0.83,-1.5 -3.16,0.19 -4.75,-2.17 -6.82,-3.83 a 2.4,2.4 0 0 0 -2.84,0.14 c -2.62,1.77 -4.2,0.7 -5.73,-1.67 -2.65,-4.12 -5,-4.47 -8.9,-1.71 -3.31,2.33 -6.17,1.52 -7.77,-2.21 -0.39,-0.92 -0.87,-1.8 -1.19,-2.75 -0.85,-2.5 -2.2,-4.58 -5,-4.84 -2.8,-0.26 -4.22,1.55 -6,3.54 -1.93,2.18 -3.77,6 -7.82,4.26 -5.5,-2.41 -6.56,-0.77 -9.69,3.11 -1.51,1.88 -2.89,2.74 -5.39,2 -1.86,-0.55 -4.64,-1.12 -5.73,0.28 -2.12,2.75 -4.56,3.41 -7.7,3.4 -1.08,0 -2.88,0.54 -2.67,2 0.21,1.46 1.89,0.78 2.9,0.78 12.86,0.02 25.73,0 38.6,0 z"
         id="path10" />
      <path
         class="cls-3"
         d="m 670.35,251.86 c 0.84,8 3.6,15.49 5.35,23.25 2.31,10.33 5.55,20.42 8.37,30.61 3.5,12.67 3.57,25.58 1.81,38.54 -0.68,5.06 -1.22,10.13 -1.83,15.19 -6.12,3.39 -12.23,6.79 -18.36,10.15 q -18.63,10.22 -37.27,20.4 c -1.68,0.91 -3.12,2.37 -5.21,2.44 a 82.34,82.34 0 0 1 -3,-20.89 94.45,94.45 0 0 1 4.46,-31.5 86.29,86.29 0 0 1 10.46,-18.62 c 2.92,-2.2 5,-5.16 7,-8.13 a 18.47,18.47 0 0 0 4.35,-9.7 c 1.73,-10.4 -1.2,-20.16 -4.37,-29.86 -0.27,-1.47 -0.44,-3 -0.83,-4.39 a 95.67,95.67 0 0 1 -2.54,-35.19 c 0.6,-5.63 2.62,-10.89 3.26,-16.46 q 3.09,-3.34 6.2,-6.68 c 1.39,0.6 2.72,0 4,-0.38 2.45,-0.65 4.68,-0.56 6.7,1.1 -0.92,1.15 -2.25,0.77 -3.45,1 -4.2,0.66 -6.85,3.23 -7.28,6.79 -0.61,5 0.62,9.87 1.67,14.68 a 4,4 0 0 0 4.17,3.08 18.5,18.5 0 0 0 7.9,-1.8 c 1.75,-0.8 3.08,-0.61 4.11,1.07 1.08,5.14 1.86,10.44 4.33,15.3 z"
         id="path12" />
      <path
         class="cls-4"
         d="m 446.2,360.14 a 2.13,2.13 0 0 0 2,0.84 c 5.6,0.06 11.21,0.55 16.78,0.6 14.83,0.13 29.62,1.13 44.41,1.83 6.77,0.32 13.69,0.21 20.35,2 0.67,0.19 1.7,-0.06 1.64,1 -0.05,0.83 -0.87,1.12 -1.66,1.21 -4.68,0.52 -9.36,1.21 -14.06,1.51 -12.29,0.77 -24.61,1.13 -36.91,1.74 -8,0.4 -16,-0.13 -23.9,0.65 -10.22,1 -20.47,-0.06 -30.64,0.76 -14.1,1.14 -28.19,0.3 -42.28,0.64 -60.31,1.42 -120.63,0.87 -180.94,0.54 -21.46,-0.12 -42.94,0.11 -64.38,-0.73 -10.1,-0.4 -20.2,-0.08 -30.27,-0.62 -14.3,-0.76 -28.63,-0.9 -42.92,-1.6 -12.38,-0.61 -24.83,-0.78 -37.12,-2.81 -1.06,-0.18 -2.64,0.11 -2.56,-1.44 0.07,-1.37 1.62,-0.67 2.48,-0.94 6.63,-2.1 13.58,-1.58 20.35,-2 14.65,-0.88 29.33,-1.56 44,-1.87 5.38,-0.11 10.86,0.56 16.22,-0.63 4.55,3.65 9.53,6.44 15.5,6.63 5.22,0.16 10.45,0 15.68,-0.08 8.6,1 15.67,-2.15 21.81,-7.91 2.45,1.85 5,-0.15 7.41,0.18 11.91,1.66 23.76,-0.63 35.63,-0.25 a 2.09,2.09 0 0 0 2,-0.81 c 4.9,4.88 10.47,8.56 17.6,8.84 5.35,0.22 10.72,0 16.08,-0.08 9.51,1.1 16.93,-2.85 23.2,-9.58 0.82,2 2.56,1.63 4.14,1.63 7.29,0 14.59,0 21.88,0 1.19,0 2.53,0.37 3.4,-0.89 4.86,4.93 10.44,8.58 17.55,8.92 5.09,0.25 10.22,0 15.33,0 8.93,1.12 16.31,-2.12 22.7,-8.11 13.79,-0.11 27.54,1.27 41.34,0.89 1.39,0 2.78,0.07 3.49,-1.5 4.93,4.83 10.5,8.53 17.63,8.78 5.61,0.2 11.23,0 16.84,-0.08 7.9,0.92 14.39,-2.22 20.2,-7.26 z"
         id="path14" />
      <path
         class="cls-5"
         d="m 648.18,211 q -3.1,3.35 -6.2,6.68 c 0,-4 0,-8 0,-12 q -0.07,-39.3 -0.14,-78.59 c 0,-3.25 0,-6.5 0.18,-9.73 0.17,-2.57 -0.62,-3.4 -3.32,-3.39 q -53.16,0.12 -106.34,0 c -2.79,0 -3.59,0.77 -3.58,3.59 0.09,27.08 0,54.17 0,81.25 -5.46,-0.77 -5.43,-0.77 -5.43,-6.07 0,-9.46 -0.07,-18.92 -0.11,-28.38 l -0.08,-2.12 c 0,-0.77 0,-1.54 0,-2.31 0,-0.77 0,-1.43 0,-2.14 q 0,-9.43 0,-18.86 v -16.37 c 0,-7.45 0.11,-14.9 0.11,-22.34 a 14,14 0 0 1 1.33,-6.86 9.8,9.8 0 0 1 7.6,-3.36 q 53.58,0.09 107.16,0 c 0.87,0 1.74,0.13 2.61,0.2 v 0 c 0.07,0.43 0.27,0.7 0.76,0.59 3.17,0.42 4.24,2.93 5.34,5.4 l 0.09,0.73 0.09,17.31 v 12.65 q 0,31.22 0,62.43 c 0,1.66 0,3.32 0,5 0,3.82 0,7.64 0,11.46 -0.01,1.75 -0.04,3.48 -0.07,5.23 z M 585.49,103.54 c 5.1,0 10.2,0 15.3,0 1.07,0 2.59,0.27 2.52,-1.37 -0.07,-1.64 -1.53,-1.33 -2.63,-1.33 q -14.92,0 -29.85,0 c -1.08,0 -2.63,-0.26 -2.69,1.23 -0.07,1.87 1.64,1.44 2.8,1.45 4.85,0.03 9.7,0.01 14.55,0.02 z"
         id="path16" />
      <path
         class="cls-6"
         d="m 624.68,340 a 94.45,94.45 0 0 0 -4.46,31.5 82.34,82.34 0 0 0 3,20.89 c -3.67,2.36 -7.15,5.12 -11.72,5.58 -9.16,-2.1 -16.62,-7.26 -23.31,-13.52 -10.26,-9.62 -19.44,-20.29 -29.09,-30.5 -4.12,-4.8 -9.29,-8.63 -12.89,-13.92 z"
         id="path18" />
      <path
         class="cls-7"
         d="m 611.49,398 c 4.57,-0.46 8,-3.22 11.72,-5.58 2.09,-0.07 3.53,-1.53 5.21,-2.44 q 18.66,-10.14 37.27,-20.36 c 6.13,-3.36 12.24,-6.76 18.36,-10.15 2.59,-1.39 5.2,-2.74 7.76,-4.2 1.49,-0.85 2.56,-1.1 3.61,0.76 2.37,4.18 5.16,8.14 7.38,12.39 1.38,2.62 3.09,3.65 5.89,3.05 -7.56,4.28 -15.11,8.59 -22.7,12.84 q -37.92,21.25 -75.87,42.47 a 4.12,4.12 0 0 1 -1.07,0.29 c -3.66,-5.86 -7.3,-11.74 -11,-17.58 -1.09,-1.72 -1,-2.8 1,-3.77 3.56,-1.73 7,-3.66 10.46,-5.61 0.82,-0.48 2.43,-0.4 1.98,-2.11 z"
         id="path20" />
      <path
         class="cls-7"
         d="m 346.52,74.48 c -12,25.43 -27.58,48.6 -44.21,71.14 -1.54,2.09 -2.41,2.31 -4,0.13 -15.2,-20.92 -30,-42.12 -41.35,-65.45 -2,-4.14 -3.74,-8.45 -5.36,-12.77 -6.91,-18.38 -2.83,-34.76 9.24,-49.64 0.39,-0.47 0.69,-1 1,-1.54 7.16,-7 15.18,-12.85 25.15,-14.7 6.52,-1.2 12.94,-2.36 20.01,-1.11 7.54,1.35 14.53,3.25 20.94,7.18 19,11.64 31.6,37.61 19.87,63.28 -0.53,1.12 -0.87,2.32 -1.29,3.48 z M 345.86,49.7 C 344.65,38.34 340.25,26.81 329.72,18.3 315.24,6.59 299.29,3.93 282,11.12 270.41,15.95 262.7,24.67 257.84,36.17 a 37.87,37.87 0 0 0 -2.42,22.32 c 1.91,9.79 6.39,18.72 11.2,27.47 a 408.74,408.74 0 0 0 24.54,38.62 c 2.36,3.35 4.83,6.63 7.32,9.88 1,1.26 2.14,2.34 3.54,0.37 5.1,-7.19 10.5,-14.19 15.23,-21.62 8,-12.54 16.19,-25 22.37,-38.59 3.38,-7.41 5.94,-14.96 6.24,-24.92 z"
         id="path22" />
      <path
         class="cls-1"
         d="m 546.2,340 c 3.6,5.29 8.77,9.12 12.89,13.92 -15.72,0 -31.43,0.11 -47.14,0.12 q -28.26,0 -56.51,0 c -1.32,0 -2.76,0.48 -3.93,-0.62 a 40.61,40.61 0 0 0 2.47,-5.79 c 0.77,-2.86 2.45,-3.42 5.19,-3.39 3.67,0 7.42,0.78 11,-0.54 4.6,-1.82 6.16,-4.18 5.54,-8.34 1.63,-0.84 1,-2.41 1.08,-3.67 0.48,-5.95 -0.35,-11.95 0.72,-17.88 2.65,1.28 4.21,3.78 6.34,5.66 9.09,8.05 14,9.71 26.48,3 0.43,-0.24 0.78,-0.64 1.22,-0.85 3.89,-1.81 7,-5.1 11.51,-5.73 l 0.27,14.92 c 0.11,5.86 3.17,8.95 9,9 C 537,340 541.6,340 546.2,340 Z"
         id="path24" />
      <path
         class="cls-7"
         d="m 32.88,317.51 c 0,-17.57 0.15,-35.15 0,-52.72 0,-3.39 0.82,-4.5 4.33,-4.41 9.59,0.26 19.19,0.12 28.79,0.13 -0.81,2.79 -3.38,4.94 -3,8.18 -1.83,7.13 -3.36,14.3 -3,21.74 l -0.66,6.62 c -1.34,1.18 -0.64,2.75 -0.71,4.12 -0.19,3.81 0.93,8.13 -4.53,9.45 -0.58,0.14 -1.08,1 -1.43,1.62 -3.29,6 -1.79,18.42 2.74,23.05 -2.87,0.68 -5.59,2.21 -8.68,1.59 a 68.5,68.5 0 0 1 -14.24,-4.06 c 0.71,-5.09 0.51,-10.2 0.39,-15.31 z"
         id="path26" />
      <path
         class="cls-8"
         d="m 138,367.45 c -5.23,0 -10.46,0.24 -15.68,0.08 -6,-0.19 -11,-3 -15.5,-6.63 l -5.7,-6.9 c -1,-2.25 -2.44,-4.41 -3,-6.76 -0.66,-2.68 -2.12,-3 -4.49,-3 q -12.85,0.16 -25.74,0 c -6.11,-0.07 -9,-2.82 -9.46,-8.62 l 9.87,-0.16 93.17,-0.06 2.09,0.2 c 2.47,1.28 5.13,0.35 7.68,0.63 1,0.12 2.43,-0.34 2.66,1.3 0.26,1.87 -1.45,1.78 -2.49,2.16 a 3.81,3.81 0 0 1 -2.14,-0.19 c -2,-0.56 -3.22,0.16 -2.64,2.13 1,3.16 -0.9,2.86 -2.87,2.87 -4.34,0 -8.39,-0.59 -12,3.63 -6.32,7.33 -16.17,6.3 -22,-1.53 a 4.45,4.45 0 0 0 -4,-2.14 c -2.61,0.1 -5.23,0.05 -7.85,0 -1.76,0 -2.74,0.54 -1.85,2.45 4.31,9.24 8.88,18.22 20.75,19.35 a 1.38,1.38 0 0 1 1.19,1.19 z"
         id="path28" />
      <path
         class="cls-9"
         d="m 470.21,343.72 c -3.62,1.32 -7.37,0.57 -11,0.54 -2.74,0 -4.42,0.53 -5.19,3.39 a 40.61,40.61 0 0 1 -2.47,5.79 l -5.31,6.7 c -5.81,5 -12.3,8.18 -20.24,7.29 -0.25,-1.11 -1.1,-1.3 -2,-1.18 -5.18,0.7 -8.64,-2.4 -12,-5.5 -8.46,-7.75 -12,-17.51 -11.4,-28.84 0.73,-13.48 5.64,-24.4 18.67,-30.46 8.11,-3.76 19,-2.2 25.29,4.19 2,2 4.92,3.46 4.56,7 4.68,1 4.24,5.54 5.48,8.66 a 30.77,30.77 0 0 1 1.45,18.7 c -0.59,2.55 0.24,4 3.29,3.77 3.66,-0.25 7.24,-0.06 10.87,-0.05 z m -22.33,-11.35 a 25.17,25.17 0 0 0 -4.27,-13.9 c -7.41,-11.28 -21.83,-11.65 -29.78,-0.75 -7.1,9.73 -6.41,24.54 1.55,33.29 7.38,8.11 18.53,8.2 26,0.13 4.51,-4.9 6.48,-10.81 6.5,-18.77 z"
         id="path30" />
      <path
         class="cls-1"
         d="m 58.4,335.61 c 0.46,5.8 3.35,8.55 9.46,8.62 q 12.87,0.15 25.74,0 c 2.37,0 3.83,0.32 4.49,3 0.59,2.35 2,4.51 3,6.76 q -49.12,0 -98.25,0.15 c -2.46,0 -2.88,-1 -2.87,-3.15 0,-6.79 5.88,-14.14 13.72,-17.15 a 29.12,29.12 0 0 1 16.92,-1.24 0.61,0.61 0 0 0 1,0.15 l 0.85,0.06 a 67.92,67.92 0 0 0 14.24,4.07 c 3.09,0.62 5.81,-0.91 8.68,-1.59 z"
         id="path32" />
      <path
         class="cls-2"
         d="m 648.18,211 c 0,-1.73 0.06,-3.46 0.08,-5.19 0.38,0.19 1,0.86 1,0.66 -0.23,-4 1.54,-8.27 -1,-12.12 0,-1.65 0,-3.31 0,-5 a 3.82,3.82 0 0 1 4,1.46 c 7.34,8.1 13.11,17.21 15.57,27.9 a 129.08,129.08 0 0 1 3,19.35 c 0.36,4.72 -2.06,9.18 -0.44,13.79 -2.47,-4.84 -3.25,-10.16 -4.37,-15.38 -1.63,-7.29 -4.61,-14.23 -5.4,-21.74 -0.11,-1.05 -0.19,-2.58 -1.72,-3 -2,-1.66 -4.25,-1.75 -6.7,-1.1 -1.3,0.31 -2.63,0.95 -4.02,0.37 z"
         id="path34" />
      <path
         class="cls-2"
         d="m 648.25,120.93 v -6.65 a 9.63,9.63 0 0 1 0,6.65 z"
         id="path36" />
      <path
         class="cls-2"
         d="M 648.25,126.93 V 124 a 2.21,2.21 0 0 1 0,2.93 z"
         id="path38" />
      <path
         class="cls-10"
         d="m 31.65,332.75 a 0.61,0.61 0 0 1 -1,-0.15 z"
         id="path40" />
      <path
         class="cls-2"
         d="m 642.73,90.84 c -0.49,0.11 -0.69,-0.16 -0.76,-0.59 z"
         id="path42" />
      <path
         class="cls-2"
         d="m 648.16,97 -0.09,-0.73 a 3.66,3.66 0 0 1 0.31,0.49 c 0,0 -0.14,0.13 -0.22,0.24 z"
         id="path44" />
      <path
         class="cls-11"
         d="m 58.4,335.61 -3,-0.32 c -4.53,-4.63 -6,-17.07 -2.74,-23.05 0.35,-0.63 0.85,-1.48 1.43,-1.62 5.46,-1.32 4.34,-5.64 4.53,-9.45 0.07,-1.37 -0.63,-2.94 0.7,-4.12 0,2.62 0.11,5.25 -0.12,7.86 -0.26,2.79 0.7,3.67 3.54,3.64 13.11,-0.15 26.23,-0.1 39.35,-0.11 6,-0.35 12,0.68 18,-0.68 a 9.52,9.52 0 0 0 2.47,0.69 c 17,0 34.1,0 51.15,0 1.64,0 2.64,-0.44 2.54,-2.3 -0.31,-5.34 0.37,-10.64 0.73,-16 0.76,-1 1.92,-1 3,-1.3 7.48,-2.11 14.2,-5.44 18.82,-12 1.71,-2.45 0.85,-6.11 -1.94,-7.11 -2.4,-0.86 -4.76,-2 -7.51,-1.84 -4.11,0.19 -8.23,0 -12.34,-0.07 2.58,-0.54 4.48,-1.66 4.57,-4.7 0.05,-1.51 1.42,-2.3 2.38,-3.24 10.61,-10.49 23.23,-18.25 35.77,-26.11 2.51,-1.58 5.43,-2.48 7.53,-4.74 9.67,-10.4 19.79,-20.34 30.19,-30 a 376,376 0 0 1 33.43,-28 71.34,71.34 0 0 1 27.9,-12.83 c 5.9,-1.24 11.78,-2.49 17.77,-3.25 q -11.64,-0.39 -23.23,-0.25 c -30.45,0.37 -60.9,-0.83 -91.34,0.64 1.56,-1.35 3.47,-1.25 5.34,-1.26 q 24.73,-0.14 49.48,-0.23 h 34.43 c 15.37,0 30.74,0.39 46.1,0 10.39,-0.24 20.6,1.63 30.94,1.73 a 19.19,19.19 0 0 1 2.16,0.5 c 4.63,0.63 9.08,2.29 13.81,2.3 a 11.45,11.45 0 0 0 6.8,1.6 8.49,8.49 0 0 0 2.21,1.29 c 12.57,2.68 20.63,10.71 26.42,21.71 3.12,5.94 6.79,11.59 10.22,17.36 2.28,4.74 4.16,9.69 7.54,13.83 0.06,0.41 0.13,0.81 0.2,1.22 -0.24,2.56 1.29,4.22 2.92,5.85 l 9.06,18.18 a 7.77,7.77 0 0 0 2.88,6 12.49,12.49 0 0 0 0.43,2.54 c 3.05,8.11 5.67,16.31 5.63,25.12 0,3.72 0,7.44 0.06,11.15 -8.11,0.53 -8.94,1.44 -9,9.87 0,0.25 0,0.5 0,0.75 -0.08,9 -0.08,9 8.82,9.11 0.71,3.35 -2.36,6.39 -0.8,9.81 -1.07,5.93 -0.24,11.93 -0.72,17.88 -0.1,1.26 0.55,2.83 -1.08,3.67 -3.49,0.06 -7,0 -10.48,0.23 -2.63,0.2 -3.33,-0.71 -3.38,-3.32 A 42.26,42.26 0 0 0 451,303.92 c -14.13,-15.67 -37.08,-14.11 -49.37,3.09 -6,8.38 -8.11,17.8 -8.71,27.78 -2.37,0 -4.74,-0.1 -7.12,-0.06 -1.63,0 -2.67,-0.38 -2.56,-2.27 0.25,-4.49 -0.62,-8.94 -0.67,-13.4 -0.18,-15.82 -0.85,-31.61 -1.46,-47.41 -0.58,-14.8 -0.77,-29.61 -1.58,-44.41 -0.48,-8.83 -0.25,-17.68 -0.56,-26.52 -0.41,-11.45 -1.45,-22.9 -0.94,-34.37 0.13,-2.91 -1,-4.1 -3.87,-4.13 -17.18,-0.22 -34.36,-0.22 -51.33,3 -10.64,2 -21.13,4.54 -29.6,12 -1.7,0.43 -3.51,0.74 -3.75,3 -2.39,0.36 -3.78,2.12 -5.25,3.75 l -0.75,0.75 c -2.15,1.19 -4.72,1.88 -5.56,4.68 1.91,-1.49 5.13,-1.38 5.58,-4.66 l 0.75,-0.74 c 2.07,-0.82 4.65,-0.91 5.25,-3.76 1.31,-0.93 3.68,-0.52 3.75,-3 1.61,0.11 2.83,-0.73 4.13,-1.5 a 67.48,67.48 0 0 1 18.83,-7.65 c 8.49,-2 17.08,-2.9 25.73,-3.77 10.48,-1.05 20.94,-0.21 31.39,-0.6 2.19,-0.08 3.19,0.82 3.18,3.08 0,4.1 0.5,8.21 0.58,12.28 0.31,15.81 1,31.6 1.52,47.4 0.52,15.8 1.05,31.35 1.46,47 0.32,12.45 0.77,24.91 1,37.37 0.13,6.46 0.85,12.91 0.7,19.39 -0.07,3 -0.65,4.6 -4.35,4.55 -15.73,-0.22 -31.47,-0.1 -47.2,-0.06 -1.33,0 -2.77,-0.47 -3.94,0.62 l -42.08,0.06 c -0.18,-11.17 -2.06,-21.95 -8,-31.61 -1.76,-2.86 -3.22,-6.27 -7,-7.36 -0.38,-1.87 -1.37,-3.1 -4.27,-3.64 1.57,2 2.31,3.47 4.27,3.64 1.41,3.64 4.82,5.85 6.58,9.3 a 60.87,60.87 0 0 1 7,29.68 16.48,16.48 0 0 0 -1.86,0.17 c -3.85,0.72 -5,-0.77 -5,-4.72 a 40.5,40.5 0 0 0 -8.75,-24.62 c -11.7,-15.32 -32.31,-17.77 -45.31,-5.44 -7.5,6 -11.61,14 -13.32,23.35 a 30.39,30.39 0 0 0 -0.88,11 l -1,0.91 h -0.77 a 4.92,4.92 0 0 0 -1.39,-0.42 q -20.46,-0.07 -40.92,-0.09 l -2.09,-0.2 c -1.91,-5.13 -3.93,-10.23 -5.7,-15.41 -0.68,-2 -1.72,-2.6 -3.8,-2.59 q -36.85,0.11 -73.72,0 c -2.45,0 -3.51,0.87 -4.27,3 -1.78,5.06 -3.77,10 -5.68,15 z m 201.1,-129.87 0.75,-0.75 a 6,6 0 0 0 4.49,-4.51 l 0.18,-0.32 -0.18,0.32 a 6,6 0 0 0 -4.51,4.5 l -0.75,0.75 -0.75,0.74 c -1.62,-0.07 -2.87,0.34 -3,2.26 -2.1,0.4 -3,2 -3.76,3.75 a 5.78,5.78 0 0 0 -4.45,4.55 c -1.22,1.65 -3.32,1.95 -4.83,3.1 -5.12,3.88 -11.74,6.73 -11,15 0.06,0.83 -0.07,1.73 0.91,2.17 a 0.59,0.59 0 0 1 0.21,0.53 c -1.93,1.6 -0.23,3.49 -0.26,5.19 -0.19,12.47 0,25 -0.15,37.44 0,3.08 1,4.19 4.09,4.13 a 43.07,43.07 0 0 1 18.82,3.85 c 3,1.35 6,2.68 9,4 0.29,-1.22 -0.44,-1.54 -1.07,-1.93 -7.66,-4.83 -16.25,-6.8 -25.08,-7.37 -3.57,-0.23 -4.3,-1.28 -4.25,-4.54 0.18,-10.86 0,-21.72 0.09,-32.58 0,-2.4 -1.22,-4.91 0.41,-7.22 3.41,0.84 6.6,2.61 10.25,2.37 l 1.85,0.69 a 108.69,108.69 0 0 0 21.34,0.09 l 0.38,-0.67 c 4.66,-0.92 6.95,-3.18 7.82,-7.72 l 35.21,-0.09 15.76,0.09 h 12.72 c 9.61,0.4 19.23,0.76 28.83,1.24 2.48,0.12 3.84,-0.49 3.39,-3.25 -0.14,-0.85 -0.13,-1.73 -0.19,-2.59 0.65,-15.49 -0.31,-30.93 -1.13,-46.38 -0.13,-2.48 -0.15,-5 -0.22,-7.45 0.49,-6.85 0.49,-6.85 -6.26,-6.88 a 11.88,11.88 0 0 1 -1.45,-0.15 c -4.75,-1.22 -9.6,-0.47 -14.39,-0.51 -3.8,0 -7.66,-0.68 -11.41,0.52 -6.11,0.73 -12.25,1 -18.36,2.18 -7.77,1.47 -15,4 -21.34,8.57 a 257.37,257.37 0 0 0 -36.14,31.92 c -2.81,2.94 -6.28,3.86 -9.94,4.67 0.29,-1 0.57,-2 0.86,-2.95 a 4.39,4.39 0 0 0 3.74,-3.75 3.58,3.58 0 0 0 3,-2.25 z M 273.74,193 a 2.76,2.76 0 0 0 2.74,-2.78 2.86,2.86 0 0 0 -2.74,2.78 1.35,1.35 0 0 0 -1.5,1.5 c -3.18,0.06 -4.39,2.41 -5.48,4.89 a 14.89,14.89 0 0 0 5.48,-4.89 1.37,1.37 0 0 0 1.5,-1.5 z m 96.6,51.83 c -0.14,-0.2 -0.27,-0.55 -0.43,-0.57 -8,-0.53 -15.92,-0.25 -23.89,-0.12 -0.83,0 -0.89,0.68 -0.28,1.27 a 27.85,27.85 0 0 1 -0.05,4.09 c -0.47,3 0.9,3.79 3.69,3.67 4.46,-0.18 8.94,-0.05 13.4,-0.05 7.88,0 7.88,0 7.62,-7.77 a 0.68,0.68 0 0 0 -0.06,-0.54 z M 385.5,193 c 0.25,5 0.17,10 1.07,15.09 1.21,6.76 0.56,13.8 1.7,20.7 0.49,2.93 1.36,3.81 3.87,3.11 4.56,-1.27 9.31,-2 13.71,-3.6 2.18,-0.79 5.19,0.47 6.66,-2.26 a 42.8,42.8 0 0 0 12.74,-3.18 c 4.36,-2.2 7.86,-5.1 8.46,-10.35 1,0 1.19,-0.75 1.24,-1.54 0.36,-4.83 0.54,-9.6 -2.16,-14 -1.5,-2.46 -2.52,-5.22 -4.07,-7.65 -2.83,-4.44 -4.9,-9.55 -9.22,-12.82 -5.52,-4.19 -12.34,-4.8 -18.9,-5.89 -3.51,-0.59 -7.13,-0.51 -10.63,-1.15 -6.82,-1.26 -7,-1.24 -6.59,5.55 1.29,5.9 -0.26,12.16 2.12,17.99 z m 73.55,69.72 c 0.44,-5.36 -3.06,-8.39 -8.1,-9 -4.52,-0.58 -8.57,3.63 -8.81,8.29 -0.3,6 3.9,8.87 7.95,9 a 8.37,8.37 0 0 0 8.96,-8.32 z"
         id="path46" />
      <path
         class="cls-12"
         d="m 222,155.41 c 30.44,-1.47 60.89,-0.27 91.34,-0.64 q 11.59,-0.14 23.23,0.25 c -6,0.76 -11.87,2 -17.77,3.25 a 71.34,71.34 0 0 0 -27.9,12.83 376,376 0 0 0 -33.43,28 c -10.4,9.69 -20.52,19.63 -30.19,30 -2.1,2.26 -5,3.16 -7.53,4.74 -12.54,7.86 -25.16,15.62 -35.77,26.11 -1,0.94 -2.33,1.73 -2.38,3.24 -0.09,3 -2,4.16 -4.57,4.7 a 53.6,53.6 0 0 0 -17.24,4.73 H 73 a 30,30 0 0 0 -10,-3.93 c -0.39,-3.24 2.18,-5.39 3,-8.18 8.43,-7.89 17.77,-14.62 27.15,-21.3 7.91,-4.54 15.45,-9.54 21.8,-16.23 a 207.08,207.08 0 0 1 16.1,-15.81 c 2,-3 5.37,-4.7 7.1,-7.9 1,0 1.47,-0.79 2.14,-1.33 8.11,-6.65 15.58,-14 24,-20.32 3.74,-2.78 7.75,-5.31 11.13,-8.59 l 8.24,-4.73 c 12.09,-6.05 24.92,-8.65 38.34,-8.89 z m -101.38,75.91 c 0.21,0.65 0.76,0.47 1.22,0.47 q 43.42,0 86.87,0 c 1,0 2.2,0.51 3,-0.63 9.2,-2.26 15.36,-8.55 20.81,-15.77 a 2.21,2.21 0 0 0 1.47,-0.87 c 13.86,-14 27.5,-28.23 43.56,-39.82 3.07,-2.15 6.15,-4.29 9.87,-6.88 -1.49,-0.16 -2.08,-0.28 -2.67,-0.28 q -45.74,0 -91.48,0.05 a 20.48,20.48 0 0 0 -4,0.56 c -7.35,1.46 -12.53,6.49 -18.09,10.81 a 268.48,268.48 0 0 0 -26.94,24.63 c -8,8.17 -16.45,15.9 -23.53,24.94 -0.93,1.21 -1.08,1.83 -0.09,2.79 z"
         id="path48" />
      <path
         class="cls-7"
         d="m 457.61,215.47 c -0.07,-0.41 -0.14,-0.81 -0.2,-1.22 0,-6.86 0.15,-13.72 0,-20.58 -0.05,-2.58 0.4,-4.17 3.42,-3.71 3.44,0.52 4.47,-1.24 4.11,-4.36 -0.27,-2.35 0,-4.24 3.2,-3.91 2.35,0.24 2.18,-1.66 2,-3.1 -0.33,-2.91 0.41,-4.76 3.69,-5.14 2.55,-0.3 1.62,-2.53 1.53,-3.9 -0.18,-2.78 0.76,-3.78 3.6,-3.62 a 103.68,103.68 0 0 0 12.34,0 c 3.14,-0.21 3.71,1.09 3.69,3.89 -0.11,14.47 0,28.94 -0.11,43.41 0,2.91 0.72,4.09 3.76,3.81 2.72,-0.24 5.48,-0.05 8.23,-0.05 a 19.56,19.56 0 0 0 8.81,11.24 c -0.78,1 -1.73,0.7 -2.54,0.82 -8.83,1.3 -12.86,9.65 -12,14.61 a 21.14,21.14 0 0 0 6.07,12 54.92,54.92 0 0 1 7.34,7.84 c -2.07,0 -3.53,-0.06 -5,0 -3.48,0.15 -7.16,1.38 -9,3.79 a 14,14 0 0 0 -1.09,16.49 9.74,9.74 0 0 0 0.77,3.94 c 4.6,11.48 15,18 22.67,26.89 l 0.11,1.36 c -4.47,0.63 -7.62,3.92 -11.51,5.73 -0.44,0.21 -0.79,0.61 -1.22,0.85 -12.49,6.67 -17.39,5 -26.48,-3 -2.13,-1.88 -3.69,-4.38 -6.34,-5.66 -1.56,-3.42 1.51,-6.46 0.8,-9.81 2.18,-0.19 3.06,-1.52 3.68,-3.54 1.16,-3.78 0.86,-7.63 1.18,-11.46 0.31,-3.63 -1.12,-5.06 -4.62,-4.73 0,-3.71 -0.08,-7.43 -0.06,-11.15 0,-8.81 -2.58,-17 -5.63,-25.12 a 12.49,12.49 0 0 1 -0.43,-2.54 c -0.86,-2 2.29,-6 -2.88,-6 l -9.06,-18.18 c 0.18,-2.52 0.12,-4.93 -2.83,-5.89 z"
         id="path50" />
      <path
         class="cls-7"
         d="m 222,155.41 c -13.38,0.24 -26.21,2.84 -38.24,8.89 0,-20.37 0.08,-40.74 -0.05,-61.12 0,-3.09 0.83,-4 4,-4 q 33.38,0.18 66.75,0 c 3.58,0 4.47,1.24 4.4,4.59 -0.19,8.62 0,17.25 -0.12,25.87 0,2.63 0.78,3.55 3.42,3.41 3.61,-0.19 7.26,0.11 10.87,-0.1 2.87,-0.16 4,0.64 3.87,3.73 -0.24,5.74 -0.06,11.5 -0.05,17.25 q -24.73,0.11 -49.48,0.23 c -1.94,0 -3.85,-0.1 -5.37,1.25 z"
         id="path52" />
      <path
         class="cls-7"
         d="m 404.22,158.46 c -4.73,0 -9.18,-1.67 -13.81,-2.3 a 19.19,19.19 0 0 0 -2.16,-0.5 c -10.34,-0.1 -20.55,-2 -30.94,-1.73 -15.36,0.37 -30.73,0 -46.1,0 a 27.29,27.29 0 0 0 0,-3 c -0.25,-2.35 0.86,-3.22 3.05,-2.91 2.95,0.42 4.18,-0.74 3.75,-3.73 -0.35,-2.43 0.1,-4.17 3.26,-3.85 2.36,0.23 2,-1.72 2,-3.15 -0.06,-2.74 -0.28,-5.25 3.82,-5.19 2.24,0 1.49,-2.31 1.39,-3.59 -0.22,-2.89 0.7,-4 3.76,-3.84 4.1,0.26 8.23,0 12.34,0.11 2.48,0.09 3.62,-0.54 3.53,-3.3 -0.1,-2.95 -1.35,-6.79 0.54,-8.68 2.18,-2.18 6.16,-0.74 9.34,-0.76 14.09,-0.1 28.19,0 42.29,-0.11 3,0 4.12,0.63 4.08,3.89 -0.22,14.18 -0.13,28.42 -0.14,42.64 z"
         id="path54" />
      <path
         class="cls-3"
         d="m 499.55,283.76 a 14,14 0 0 1 1.09,-16.49 c 1.85,-2.41 5.53,-3.64 9,-3.79 1.46,-0.07 2.92,0 5,0 a 54.92,54.92 0 0 0 -7.34,-7.84 21.14,21.14 0 0 1 -6.07,-12 c -0.9,-5 3.13,-13.31 12,-14.61 0.81,-0.12 1.76,0.21 2.54,-0.82 A 19.56,19.56 0 0 1 506.92,217 c -0.53,-9.66 7.22,-13.09 13.39,-17.66 1,-0.7 2.55,-0.71 2.47,-2.33 -0.07,-1.45 -1.43,-1.83 -2.45,-2.53 -6,-4 -12.12,-8 -15.06,-15 -3.42,-8.08 3.28,-16.74 12.15,-16 1.49,0.12 3,0.35 4.45,0.53 l 0.78,0.27 0.31,0.05 h 0.31 c 0,9.46 0.1,18.92 0.11,28.38 0,5.3 0,5.3 5.43,6.07 a 1,1 0 0 0 0.59,0.15 c 0.26,2.07 2.12,3 3.28,4.35 8,9.63 6.42,22.65 -3.65,28.67 -1.7,-0.59 -3.37,-0.32 -5.9,-0.1 2.65,1.52 3.7,3.64 5.87,4.39 a 95.26,95.26 0 0 0 9.24,10.82 c 0.89,2.79 1.6,5.64 3.27,8.11 0.11,7.34 -2.63,12.69 -10.17,14.81 -2.65,0.74 -2.32,2 -0.57,3.62 a 43.73,43.73 0 0 1 5.5,5.47 c 1.81,2.37 1.42,-0.41 2.07,-0.69 v 18.12 c -1.12,-0.83 0.1,-2.43 -1.21,-3.43 -1.37,2 -3,3.93 -5.25,4.51 -2.48,0.63 -2.59,2.15 -2.6,4.13 0,6.33 -0.14,12.65 -0.22,19 -0.06,-5.22 -0.13,-10.44 -0.18,-15.66 0,-5.81 0,-5.81 -5.23,-6.89 -9.1,-3 -17.82,-6.65 -24.1,-14.4 z m 18,-29.53 a 6.87,6.87 0 0 0 0,1.81 c 0.81,3.43 2.59,6.23 5.9,7.66 3,1.29 4.89,-1.11 6.94,-2.55 a 24.12,24.12 0 0 0 3.73,-3.63 c 3.09,-3.41 2.9,-6.07 -0.66,-9 a 18.73,18.73 0 0 0 -3.41,-2.27 c -5.59,-2.81 -13.55,1.34 -12.46,7.98 z m -0.06,31 c 0,4 4.36,9 7.85,8.95 3,0 8.66,-7.07 8.57,-10.63 -0.08,-3.13 -4.63,-6.41 -8.89,-6.41 -3.85,0.02 -7.5,3.94 -7.49,8.11 z m 8.58,-77.19 c -6.42,-0.12 -11.24,3.47 -11.79,8.86 -0.26,2.56 -0.22,5.5 2.19,7.07 2.41,1.57 4.66,0 6.55,-1.38 2.6,-1.86 5.32,-3.64 7,-6.59 1,-1.76 2.48,-3.47 1.19,-5.44 a 5,5 0 0 0 -5.1,-2.5 z"
         id="path56" />
      <path
         class="cls-7"
         d="M 131.07,207.17 A 207.08,207.08 0 0 0 115,223 c -6.35,6.69 -13.89,11.69 -21.8,16.23 Q 93.08,209.61 93,180 c 0,-2.1 0.73,-3.08 2.83,-2.78 3,0.43 4.45,-0.69 4,-3.88 -0.42,-2.89 0.12,-4.92 3.83,-4.42 2.31,0.32 2.15,-1.53 2.12,-3 -0.07,-2.43 -0.42,-4.74 3.4,-4.62 2.28,0.07 2,-2.29 1.81,-3.8 -0.47,-3.56 1,-4.54 4.4,-4.31 4.11,0.27 8.24,0.14 12.36,0 2.12,-0.06 2.83,0.73 2.82,2.83 -0.08,16.49 -0.07,33 -0.11,49.46 -0.06,0.72 -0.61,1.52 0.61,1.69 z"
         id="path58" />
      <path
         class="cls-7"
         d="m 175.48,169 c -3.38,3.28 -7.39,5.81 -11.13,8.59 -8.46,6.29 -15.93,13.67 -24,20.32 -0.67,0.54 -1.15,1.32 -2.14,1.33 q -0.09,-28.62 -0.17,-57.23 c 0,-4.49 0.13,-9 -0.05,-13.47 -0.11,-2.78 0.52,-4 3.67,-3.91 10.1,0.2 20.2,0.16 30.3,0 2.77,0 3.65,0.74 3.62,3.57 -0.17,13.64 -0.1,27.23 -0.1,40.8 z"
         id="path60" />
      <path
         class="cls-7"
         d="m 449.87,200.42 c -3.43,-5.77 -7.1,-11.42 -10.22,-17.36 -5.79,-11 -13.85,-19 -26.42,-21.71 a 8.49,8.49 0 0 1 -2.21,-1.29 c 1.38,-1.78 0.65,-3.85 0.69,-5.78 0.1,-5.74 0.15,-11.48 0,-17.21 -0.08,-2.66 0.86,-3.41 3.44,-3.38 10,0.13 19.95,0.17 29.92,0 3.37,-0.06 4.25,1.16 4.23,4.35 -0.12,18.71 0,37.42 -0.07,56.12 a 21,21 0 0 0 0.64,6.26 z"
         id="path62" />
      <path
         class="cls-13"
         d="m 523.18,124.67 v 12.13 a 1.39,1.39 0 0 0 0,2.12 q 0,9.44 0,18.85 l -0.55,0.69 c -1.09,-1.17 -0.63,-2.62 -0.63,-3.94 0,-17.37 -0.09,-34.75 0,-52.12 0,-3.12 -0.89,-4 -4,-4 -22.87,0.12 -45.74,0.06 -68.61,0.06 -0.87,0 -1.75,0 -2.62,0 -0.6,0 -1.36,0.13 -1.62,-0.59 a 1.2,1.2 0 0 1 1.1,-1.61 c 4.34,-0.33 8.08,-3.59 11.66,-4 4.84,-0.53 8.66,-0.59 11.48,-5.11 0.74,-1.18 2.86,-1.72 4.79,-1 4.62,1.79 7.05,1.05 10,-3.07 a 10.54,10.54 0 0 1 3.18,-3.06 c 2.9,-1.75 5.3,-1 7,1.89 1.3,2.2 1.57,4.88 3.78,6.7 2.21,1.82 3.69,2 6,0.47 4.51,-3 5.9,-2.77 9.44,1.4 1.68,2 3,3.51 5.83,1.54 1.8,-1.25 3.46,0.76 5.2,1.28 a 14,14 0 0 0 -1.33,6.86 c 0,7.44 -0.07,14.89 -0.11,22.34 a 1.38,1.38 0 0 0 0.01,2.17 z"
         id="path64" />
      <path
         class="cls-13"
         d="m 195.74,47.48 c -12.87,0 -25.75,0 -38.62,0 -1,0 -2.69,0.65 -2.9,-0.78 -0.21,-1.43 1.59,-2 2.67,-2 3.14,0 5.58,-0.65 7.7,-3.4 1.09,-1.4 3.87,-0.83 5.73,-0.28 2.5,0.72 3.88,-0.14 5.39,-2 3.13,-3.88 4.19,-5.52 9.69,-3.11 4,1.78 5.89,-2.08 7.82,-4.26 1.76,-2 3.24,-3.79 6,-3.54 2.76,0.25 4.19,2.34 5,4.84 0.32,0.95 0.8,1.83 1.19,2.75 1.6,3.73 4.46,4.54 7.77,2.21 3.93,-2.76 6.25,-2.41 8.9,1.71 1.53,2.37 3.11,3.44 5.73,1.67 a 2.4,2.4 0 0 1 2.84,-0.14 c 2.07,1.66 3.66,4 6.82,3.83 0.53,0 0.91,0.82 0.83,1.5 -0.08,0.68 -0.67,1 -1.34,1 -0.87,0 -1.75,0 -2.62,0 z"
         id="path66" />
      <path
         class="cls-10"
         d="M 523.27,164.35 H 523 l -0.31,-0.05 c 0,-0.67 0,-1.34 0,-2 a 1.19,1.19 0 0 1 0.56,-0.07 c -0.03,0.71 -0.01,1.41 0.02,2.12 z"
         id="path68" />
      <path
         class="cls-13"
         d="m 522.63,162.3 c 0,0.67 0,1.34 0,2 l -0.78,-0.27 z"
         id="path70" />
      <path
         class="cls-10"
         d="m 522.64,158.46 0.55,-0.69 c 0,0.72 0,1.44 0,2.15 -0.19,-0.49 -0.37,-0.92 -0.55,-1.46 z"
         id="path72" />
      <path
         class="cls-13"
         d="m 529,232 c 10.07,-6 11.69,-19 3.65,-28.67 -1.16,-1.39 -3,-2.28 -3.28,-4.35 0,-22.74 0.06,-45.49 0,-68.23 0,-2.51 0.25,-3.76 3.35,-3.75 36.36,0.13 72.73,0.11 109.09,0.13 q 0.07,39.28 0.14,78.59 c 0,4 0,8 0,12 -0.64,5.57 -2.66,10.83 -3.26,16.46 a 95.67,95.67 0 0 0 2.54,35.19 c 0.39,1.43 0.56,2.92 0.83,4.38 q 0,19.79 0,39.57 c -2,3 -4.05,5.93 -7,8.13 q -50.7,0 -101.39,-0.06 c -1.56,0 -3.25,0.56 -4.68,-0.63 0.08,-6.32 0.2,-12.64 0.22,-19 0,-2 0.12,-3.5 2.6,-4.13 2.29,-0.58 3.88,-2.52 5.25,-4.51 1.31,1 0.09,2.6 1.21,3.43 0.93,3.85 3,5.69 7.06,5.7 q 40.43,0.07 80.87,0 c 3.07,0 6,-1.15 6.89,-4.61 a 43.38,43.38 0 0 0 0.06,-20.91 c -0.69,-3.13 -2.89,-4.36 -6.06,-4.36 q -41.19,0.07 -82.37,0.08 c -4.07,0 -5.83,1.71 -6.46,6 -0.65,0.28 -0.26,3.06 -2.07,0.69 a 43.73,43.73 0 0 0 -5.5,-5.47 c -1.75,-1.59 -2.08,-2.88 0.57,-3.62 7.54,-2.12 10.28,-7.47 10.17,-14.81 q 42.13,0 84.27,0 c 8.06,0 7.93,-0.07 8.06,-8.06 0,-3 -0.67,-4.07 -3.91,-4.06 q -44,0.19 -88,0 c -3.14,0 -4.42,0.84 -3.67,4 A 95.26,95.26 0 0 1 529,236.26 Z m 57.46,-75 h -11.59 c -10.37,0 -20.73,0 -31.1,0 -5.33,0 -6,0.78 -6,6 0,12.51 -0.1,25 0.7,37.52 0.14,2.2 -0.78,4.49 -0.49,6.63 a 85.44,85.44 0 0 1 0.12,19 c -0.69,7.52 0.54,8.81 8.15,8.81 q 41.22,0 82.43,0 c 4.82,0 5.09,-0.3 5.09,-5.1 v -67.8 c 0,-5.07 0,-5.07 -4.91,-5.08 z m -0.78,-8.25 h 40.07 c 8.05,0 7.92,0 8.06,-8.08 0.06,-3 -0.7,-4.05 -3.92,-4 -28,0.13 -55.93,0 -83.9,0.09 -9.32,0 -7.95,-1.43 -8.25,8.07 -0.1,3.21 1.08,4 4.11,4 14.64,-0.16 29.25,-0.09 43.86,-0.1 z"
         id="path74" />
      <path
         class="cls-5"
         d="m 529.07,320.7 c 1.43,1.19 3.12,0.62 4.68,0.63 q 50.7,0.06 101.39,0.06 A 86.29,86.29 0 0 0 624.68,340 H 546.2 c -4.6,0 -9.21,-0.05 -13.82,-0.13 -5.84,-0.09 -8.9,-3.18 -9,-9 L 523.1,316 c 0,-0.45 -0.07,-0.91 -0.11,-1.36 1.08,-5.44 -0.13,-11 0.67,-16.44 5.2,1.08 5.18,1.08 5.23,6.89 0.05,5.17 0.11,10.39 0.18,15.61 z"
         id="path76" />
      <path
         class="cls-4"
         d="m 658.86,211.7 c 1.53,0.46 1.61,2 1.72,3 0.79,7.51 3.77,14.45 5.4,21.74 -1,-1.68 -2.36,-1.87 -4.11,-1.07 a 18.5,18.5 0 0 1 -7.9,1.8 4,4 0 0 1 -4.17,-3.08 c -1,-4.81 -2.28,-9.64 -1.67,-14.68 0.43,-3.56 3.08,-6.13 7.28,-6.79 1.2,-0.15 2.53,0.23 3.45,-0.92 z"
         id="path78" />
      <path
         class="cls-5"
         d="m 642.11,313.26 q 0,-19.78 0,-39.57 c 3.17,9.71 6.1,19.47 4.37,29.87 a 18.47,18.47 0 0 1 -4.37,9.7 z"
         id="path80" />
      <path
         class="cls-8"
         d="m 284.2,335.45 42.08,-0.06 a 8.42,8.42 0 0 0 1.11,0.14 c 18.57,0 37.14,0.1 55.7,-0.06 3.26,0 6.64,0.7 9.83,-0.68 0.6,-10 2.72,-19.4 8.71,-27.78 12.29,-17.2 35.24,-18.76 49.37,-3.09 a 42.26,42.26 0 0 1 10.89,28.37 c 0.05,2.61 0.75,3.52 3.38,3.32 3.48,-0.26 7,-0.17 10.48,-0.23 0.62,4.16 -0.94,6.52 -5.54,8.34 -3.63,0 -7.26,-0.2 -10.87,0 -3,0.19 -3.88,-1.22 -3.29,-3.77 a 30.77,30.77 0 0 0 -1.54,-18.67 c -1.24,-3.12 -0.8,-7.62 -5.48,-8.66 0.36,-3.56 -2.59,-5 -4.56,-7 -6.3,-6.39 -17.18,-7.95 -25.29,-4.19 -13,6.06 -17.94,17 -18.67,30.46 -0.62,11.33 2.94,21.09 11.4,28.84 3.39,3.1 6.85,6.2 12,5.5 0.92,-0.12 1.77,0.07 2,1.18 -5.61,0 -11.23,0.28 -16.84,0.08 -7.13,-0.25 -12.7,-3.95 -17.63,-8.78 -1.2,-1.61 -2.12,-3.45 -3.77,-4.7 -1.55,-3.26 -2.2,-6.94 -4.53,-9.84 -7.53,-1.08 -15.11,-0.27 -22.66,-0.44 -1.93,-0.05 -4,-0.66 -5.82,0.55 l -0.21,0.13 c -3.49,0 -7,0.09 -10.47,0 -1.77,0 -3.19,0.38 -4.12,2 -5.54,9.5 -19.34,7.9 -24.11,-0.63 a 2.29,2.29 0 0 0 -2.36,-1.31 h -9 c -1.49,0 -2.53,0.36 -1.87,2.18 2.48,6.93 6.36,12.64 12.6,16.92 2.8,1.92 6.2,1.82 8.76,3.87 -5.11,0 -10.24,0.29 -15.33,0 -7.11,-0.34 -12.69,-4 -17.55,-8.92 l -3.3,-4.56 -4.26,-9.69 c -2.48,-1.27 -5.13,-0.41 -7.7,-0.6 -2.1,-0.16 -4.82,0.67 -6.18,-0.37 -1.64,-1.25 0.19,-3.82 0.33,-5.83 0,-0.5 0,-1 0,-1.5 a 38.66,38.66 0 0 0 -5,-21.79 c -2.77,-5 -6.33,-9.39 -11.39,-11.93 -8.06,-4.05 -16.37,-3.15 -24.37,0.48 -2.3,1 -3.75,3.64 -6.46,4.22 v 0 c 1.44,-2.29 -0.19,-4.14 -0.88,-6.12 13,-12.33 33.61,-9.88 45.31,5.44 a 40.5,40.5 0 0 1 8.75,24.62 c 0,3.95 1.16,5.44 5,4.72 a 16.48,16.48 0 0 1 1.86,-0.17 z"
         id="path82" />
      <path
         class="cls-9"
         d="m 222.75,307 c 2.71,-0.58 4.16,-3.18 6.46,-4.22 8,-3.63 16.31,-4.53 24.37,-0.48 5.06,2.54 8.62,7 11.39,11.93 A 38.66,38.66 0 0 1 270,336 c 0,0.5 0,1 0,1.5 -0.14,2 -2,4.58 -0.33,5.83 1.36,1 4.08,0.21 6.18,0.37 2.57,0.19 5.22,-0.67 7.7,0.6 h -4.84 c -10.12,0 -10.12,0 -14,9.44 l -3,4.06 c -6.27,6.73 -13.69,10.68 -23.2,9.58 -1.19,-2.41 -3.58,-0.77 -5.34,-1.56 a 30.25,30.25 0 0 1 -15.35,-14.64 c -6.17,-13.18 -5.78,-26.47 2.06,-39.13 0.98,-1.63 2.75,-2.87 2.87,-5.05 z m 38.52,27.57 c 0.05,-7.18 -1.66,-13.07 -5.83,-18.08 -6.73,-8.09 -17.37,-9 -25.18,-2.19 -11.08,9.63 -10.51,30.2 1.1,39.16 a 16.37,16.37 0 0 0 19.85,0.66 c 7.04,-4.88 9.71,-12.03 10.06,-19.55 z"
         id="path84" />
      <path
         class="cls-8"
         d="m 222.75,307 c -0.12,2.18 -1.89,3.42 -2.92,5.09 -7.84,12.66 -8.23,26 -2.06,39.13 a 30.25,30.25 0 0 0 15.35,14.64 c 1.76,0.79 4.15,-0.85 5.34,1.56 -5.36,0.05 -10.73,0.3 -16.08,0.08 -7.13,-0.28 -12.7,-4 -17.6,-8.84 -1.19,-1.6 -2.08,-3.43 -3.76,-4.61 -0.51,-3.07 -2.91,-5.44 -3.13,-8.61 -0.16,-0.33 -0.31,-0.67 -0.46,-1 l -0.14,-0.12 -0.72,-0.28 -1.57,0.06 c -4.56,-0.89 -9.18,-0.14 -13.76,-0.43 -0.66,-0.05 -2.11,0.21 -1.88,-0.37 1.06,-2.72 -1.47,-3 -2.55,-4.24 -0.57,-0.66 -1.29,-1.33 -0.88,-2.26 0.41,-0.93 1.3,-0.51 2,-0.57 a 4.2,4.2 0 0 1 1.12,0 c 2.92,0.52 6.69,-1.64 8.46,2.61 2.22,-3.53 5.75,-2.54 9,-2.6 l 9.34,-0.14 h 0.77 a 1,1 0 0 0 1,-0.91 30.39,30.39 0 0 1 0.88,-11 c -0.17,-2.44 4.26,-1.7 3.24,-4.6 -0.68,-2 0.38,-3.15 1.27,-4.68 2,-3.41 6.14,-4.54 8,-8 0.34,-0.64 1.12,-0.11 1.69,0.08 z"
         id="path86" />
      <path
         class="cls-9"
         d="m 205.84,336.1 -9.34,0.14 c -3.23,0.06 -6.76,-0.93 -9,2.6 -1.77,-4.25 -5.54,-2.09 -8.46,-2.61 a 4.2,4.2 0 0 0 -1.12,0 c -0.71,0.06 -1.64,-0.25 -2,0.57 -0.36,0.82 0.31,1.6 0.88,2.26 1.08,1.24 3.61,1.52 2.55,4.24 -0.23,0.58 1.22,0.32 1.88,0.37 4.58,0.29 9.2,-0.46 13.76,0.43 -5.58,0.07 -11.17,0.2 -16.75,0.19 -10.08,0 -10.08,0 -13.91,9.18 -1.52,2 -3.05,4 -4.57,6.07 -6.14,5.76 -13.21,8.94 -21.81,7.91 a 1.38,1.38 0 0 0 -1.25,-1.18 c -11.87,-1.13 -16.44,-10.11 -20.75,-19.35 -0.89,-1.91 0.09,-2.46 1.85,-2.45 2.62,0 5.24,0.08 7.85,0 a 4.45,4.45 0 0 1 4,2.14 c 5.82,7.83 15.67,8.86 22,1.53 3.65,-4.22 7.7,-3.6 12,-3.63 2,0 3.82,0.29 2.87,-2.87 -0.58,-2 0.68,-2.69 2.64,-2.13 a 3.81,3.81 0 0 0 2.14,0.19 c 1,-0.38 2.75,-0.29 2.49,-2.16 -0.23,-1.64 -1.61,-1.18 -2.66,-1.3 -2.55,-0.28 -5.21,0.65 -7.68,-0.63 q 20.46,0 40.92,0.09 a 4.92,4.92 0 0 1 1.47,0.4 z"
         id="path88" />
      <path
         class="cls-9"
         d="m 324,367.45 c -2.56,-2.05 -6,-1.95 -8.76,-3.87 -6.24,-4.28 -10.12,-10 -12.6,-16.92 -0.66,-1.82 0.38,-2.19 1.87,-2.18 h 9 a 2.29,2.29 0 0 1 2.36,1.31 c 4.77,8.53 18.57,10.13 24.11,0.63 0.93,-1.59 2.35,-2 4.12,-2 3.49,0.07 7,0 10.47,0 a 43.85,43.85 0 0 1 -3.52,9 l -4.32,5.93 c -6.46,5.98 -13.84,9.22 -22.73,8.1 z"
         id="path90" />
      <path
         class="cls-13"
         d="m 159.77,359.54 c 1.52,-2 3,-4 4.57,-6.07 0.78,0.89 1.83,0.61 2.79,0.61 q 17,0 33.89,0 c 1.68,1.18 2.57,3 3.76,4.61 a 2.09,2.09 0 0 1 -2,0.81 c -11.87,-0.38 -23.72,1.91 -35.63,0.25 -2.36,-0.36 -4.93,1.64 -7.38,-0.21 z"
         id="path92" />
      <path
         class="cls-13"
         d="m 346.66,359.34 4.32,-5.93 c 0.79,0.83 1.82,0.68 2.8,0.67 l 33.94,-0.05 c 1.65,1.25 2.57,3.09 3.77,4.7 -0.71,1.57 -2.1,1.47 -3.49,1.5 -13.8,0.38 -27.55,-1 -41.34,-0.89 z"
         id="path94" />
      <path
         class="cls-13"
         d="m 261.66,357.84 3,-4.06 c 7.69,0.64 15.4,0.22 23.1,0.23 l 3.3,4.56 c -0.87,1.26 -2.21,0.89 -3.4,0.89 -7.29,0 -14.59,0 -21.88,0 -1.56,0.01 -3.3,0.34 -4.12,-1.62 z"
         id="path96" />
      <path
         class="cls-14"
         d="m 641.85,127.1 c -36.36,0 -72.73,0 -109.09,-0.13 -3.1,0 -3.36,1.24 -3.35,3.75 0.05,22.74 0,45.49 0,68.23 a 1,1 0 0 1 -0.59,-0.15 c 0,-27.08 0.07,-54.17 0,-81.25 0,-2.82 0.79,-3.6 3.58,-3.59 q 53.18,0.14 106.34,0 c 2.7,0 3.49,0.82 3.32,3.39 -0.25,3.25 -0.16,6.5 -0.21,9.75 z m -95,-9.84 c -2.23,-0.09 -3.27,1.08 -3.4,2.84 a 2.71,2.71 0 0 0 2.68,3 2.89,2.89 0 0 0 3.34,-2.7 c 0.21,-2.01 -1.11,-2.87 -2.65,-3.14 z m 13.15,2.85 c -0.45,-1.83 -1.36,-3 -3.38,-2.84 a 2.71,2.71 0 0 0 -2.65,3 2.9,2.9 0 0 0 3.34,2.8 c 1.77,-0.07 2.43,-1.41 2.69,-2.96 z m -21,0 c -0.45,-1.82 -1.32,-3.06 -3.37,-2.85 a 2.75,2.75 0 0 0 -2.66,3 c 0.08,1.91 1.49,2.87 3.33,2.79 1.84,-0.08 2.41,-1.38 2.64,-2.93 z"
         id="path98" />
      <path
         class="cls-15"
         d="m 585.49,103.54 c -4.85,0 -9.7,0 -14.55,0 -1.16,0 -2.87,0.42 -2.8,-1.45 0.06,-1.49 1.61,-1.23 2.69,-1.23 q 14.92,0 29.85,0 c 1.1,0 2.56,-0.18 2.63,1.33 0.07,1.51 -1.45,1.36 -2.52,1.37 -5.1,-0.01 -10.2,-0.02 -15.3,-0.02 z"
         id="path100" />
      <path
         class="cls-13"
         d="m 648.28,194.33 c 2.53,3.85 0.76,8.08 1,12.12 0,0.2 -0.63,-0.47 -1,-0.66 -0.01,-3.79 -0.01,-7.64 0,-11.46 z"
         id="path102" />
      <path
         class="cls-10"
         d="m 523.18,138.92 a 1.39,1.39 0 0 1 0,-2.12 z"
         id="path104" />
      <path
         class="cls-10"
         d="m 523.18,124.67 a 1.38,1.38 0 0 1 0,-2.11 z"
         id="path106" />
      <path
         class="cls-1"
         d="m 345.86,49.7 c -0.3,10 -2.87,17.51 -6.22,24.92 -6.18,13.61 -14.39,26.05 -22.37,38.59 -4.73,7.43 -10.13,14.43 -15.23,21.62 -1.4,2 -2.58,0.89 -3.54,-0.37 -2.49,-3.25 -5,-6.53 -7.32,-9.88 A 408.74,408.74 0 0 1 266.64,86 c -4.81,-8.75 -9.29,-17.68 -11.2,-27.47 a 37.87,37.87 0 0 1 2.42,-22.32 C 262.72,24.67 270.43,16 282,11.12 c 17.27,-7.19 33.22,-4.53 47.7,7.18 10.55,8.51 14.95,20.04 16.16,31.4 z m -45.77,31.59 a 29.5,29.5 0 0 0 29.83,-29.22 c 0.06,-16.2 -13.57,-30.44 -29.36,-29.83 -19.68,0.76 -29.18,13.88 -30.33,30.34 -1.04,14.79 14.08,28.63 29.86,28.71 z"
         id="path108" />
      <path
         class="cls-12"
         d="m 102.11,308.44 c -13.12,0 -26.24,0 -39.35,0.11 -2.84,0 -3.8,-0.85 -3.54,-3.64 0.23,-2.61 0.1,-5.24 0.12,-7.86 q 0.34,-3.3 0.67,-6.62 a 17.53,17.53 0 0 1 4,0.72 c 5.6,1.32 11.24,2.49 16.87,3.71 4.15,2.52 8.37,4.93 12.42,7.6 2.95,1.95 6.51,3.04 8.81,5.98 z"
         id="path110" />
      <path
         class="cls-2"
         d="m 80.86,294.86 c -5.63,-1.22 -11.27,-2.39 -16.87,-3.71 a 17.53,17.53 0 0 0 -4,-0.72 c -0.34,-7.44 1.19,-14.61 3,-21.74 A 30,30 0 0 1 73,272.64 c 3.25,3.11 4.85,7 5.68,11.37 0.65,3.62 1.43,7.24 2.18,10.85 z"
         id="path112" />
      <path
         class="cls-9"
         d="m 68.27,335.45 c 1.91,-5 3.9,-10 5.68,-15 0.76,-2.17 1.82,-3.05 4.27,-3 q 36.87,0.15 73.72,0 c 2.08,0 3.12,0.57 3.8,2.59 1.77,5.18 3.79,10.28 5.7,15.41 z"
         id="path114" />
      <path
         class="cls-4"
         d="m 447.88,332.37 c 0,8 -2,13.87 -6.52,18.77 -7.45,8.07 -18.6,8 -26,-0.13 -8,-8.75 -8.65,-23.56 -1.55,-33.29 7.95,-10.9 22.37,-10.53 29.78,0.75 a 25.17,25.17 0 0 1 4.29,13.9 z m -21.52,12.29 c 0.12,-1.75 -3.52,-4.89 -4.51,-3.94 -2.31,2.22 -5.82,4.29 -6.12,7.18 -0.25,2.5 3.48,4.12 5.95,5.57 0.21,0.13 0.46,0.19 0.67,0.32 1.41,0.79 2.24,0.59 2.52,-1.21 0.42,-2.69 1,-5.36 1.49,-7.92 z M 430.59,322 c -0.91,2.34 1.36,2.5 2.44,3.47 0.56,0.5 1.18,1.72 2.1,0.7 2.15,-2.36 5.86,-4.34 6,-7.2 0.16,-2.68 -3.64,-4.3 -6.26,-5.74 a 3.36,3.36 0 0 0 -0.33,-0.16 c -1.37,-0.67 -2.31,-0.64 -2.58,1.22 -0.36,2.57 -0.9,5.12 -1.37,7.71 z m 15.69,11.47 c 0,-6.77 0,-6.77 -6.38,-4.38 a 1.47,1.47 0 0 1 -0.34,0.15 c -2.65,0.51 -3.16,2.06 -3.3,4.72 -0.14,2.87 1.43,3.23 3.28,4 6.72,2.66 6.73,2.66 6.74,-4.5 z m -25.74,-0.22 c 0,-2.59 -4.63,-6.66 -8,-6.06 -3,0.55 -1.84,3.88 -1.78,5.85 0.06,1.97 -1.57,5.6 1.78,6.15 3.66,0.6 7.97,-3.19 8,-5.95 z m 6.21,-10 c -0.62,-3.67 -1.1,-6.48 -1.56,-9.3 -0.1,-0.63 -0.28,-1.49 -0.95,-1.36 a 13.07,13.07 0 0 0 -7.95,5.15 c -1.57,2 1.08,2.83 1.88,4.12 a 14.84,14.84 0 0 0 2.73,3 c 0.62,0.57 1.1,2.28 2.18,1.17 1.08,-1.11 3.78,-1.15 3.67,-2.83 z m 7.13,17.43 c -0.81,1.66 -4.27,1.38 -3.47,4.69 0.58,2.41 0.85,4.9 1.29,7.36 0.14,0.81 0.1,2 1.44,1.59 3.21,-0.95 6.14,-2.71 7.69,-5.57 1,-1.81 -1.73,-2.93 -2.72,-4.38 a 22.59,22.59 0 0 0 -2.49,-2.79 c -0.4,-0.48 -0.7,-1.13 -1.74,-0.95 z"
         id="path116" />
      <path
         class="cls-9"
         d="m 80.86,294.86 c -0.75,-3.61 -1.53,-7.23 -2.22,-10.85 -0.83,-4.34 -2.43,-8.26 -5.68,-11.37 h 86.79 c -3.37,2.79 -6.35,5.87 -7.9,10.11 -1.49,4.07 -3,8.12 -4.57,12.19 -1.13,0.53 -2.26,1 -3.37,1.59 -7.89,3.88 -16.17,6.93 -23.83,11.27 -6,1.36 -12,0.33 -18,0.68 -2.3,-2.94 -5.86,-4 -8.83,-6 -4.02,-2.69 -8.25,-5.1 -12.39,-7.62 z"
         id="path118" />
      <path
         class="cls-7"
         d="m 371.78,229 c 0.06,0.86 0.05,1.74 0.19,2.59 0.45,2.76 -0.91,3.37 -3.39,3.25 -9.6,-0.48 -19.22,-0.84 -28.83,-1.24 a 3.65,3.65 0 0 0 -1.1,-2.29 c -9.77,-12.14 -19.76,-24.11 -29.29,-36.45 -2.82,-3.65 -5.29,-7.85 -9.61,-10.17 7.36,-6.3 16.35,-8 25.58,-9 4.17,-0.36 5.38,3.14 7.58,5.57 7.57,8.37 14,17.64 21.22,26.3 5.93,7.02 11.21,14.69 17.65,21.44 z"
         id="path120" />
      <path
         class="cls-1"
         d="m 325.33,175.59 c -9.23,1 -18.22,2.75 -25.58,9 -2.84,1.19 -5.08,3.24 -7.37,5.22 a 51.28,51.28 0 0 0 -9,7.51 c -6.51,4.64 -11.37,11.1 -17.6,16.07 -1.66,1.32 -0.21,2 0.74,2.76 5.43,4.54 9.38,9.9 9.53,17.35 -0.87,4.54 -3.16,6.8 -7.82,7.72 l -23.57,-0.11 c -3.65,0.24 -6.84,-1.53 -10.25,-2.37 -0.06,-1.06 -0.75,-1.14 -1.57,-1 a 0.59,0.59 0 0 0 -0.21,-0.53 c -0.07,-0.82 0.12,-1.75 -0.91,-2.17 -0.77,-8.22 5.85,-11.07 11,-15 1.51,-1.15 3.61,-1.45 4.83,-3.1 a 3.44,3.44 0 0 0 3.61,-1.59 c 3.66,-0.81 7.13,-1.73 9.94,-4.67 a 257.37,257.37 0 0 1 36.14,-31.92 c 6.38,-4.57 13.57,-7.1 21.34,-8.57 6.11,-1.16 12.25,-1.45 18.36,-2.18 h 25.8 a 11.88,11.88 0 0 0 1.45,0.15 c 6.75,0 6.75,0 6.26,6.87 -10.48,-0.27 -20.94,-1.45 -31.43,-0.78 -4.57,0.37 -9.19,0.26 -13.69,1.34 z m -68.76,44 c -5.21,0.14 -16.86,7.32 -19.59,12 -0.63,1.08 -0.6,1.82 0.3,2.58 0.9,0.76 1.66,0.18 2.16,-0.55 4.26,-6.23 10.41,-9.35 17.61,-10.76 a 1.68,1.68 0 0 0 1.54,-2.13 1.46,1.46 0 0 0 -2.02,-1.1 z"
         id="path122" />
      <path
         class="cls-15"
         d="m 325.33,175.59 c 4.5,-1.08 9.12,-1 13.67,-1.26 10.49,-0.67 20.95,0.51 31.43,0.78 0.07,2.49 0.09,5 0.22,7.46 0.82,15.45 1.78,30.89 1.13,46.38 -6.44,-6.7 -11.72,-14.37 -17.65,-21.49 -7.21,-8.66 -13.65,-17.93 -21.22,-26.3 -2.2,-2.43 -3.41,-5.93 -7.58,-5.57 z"
         id="path124" />
      <path
         class="cls-15"
         d="m 276.06,233.55 c -0.15,-7.45 -4.1,-12.81 -9.53,-17.35 -0.95,-0.79 -2.4,-1.44 -0.74,-2.76 6.23,-5 11.09,-11.43 17.6,-16.07 7.9,9.55 15.1,19.66 23.23,29 1.8,2.08 4.29,3.93 4.65,7.05 z"
         id="path126" />
      <path
         class="cls-15"
         d="m 433.71,212.47 c -0.6,5.26 -4.1,8.16 -8.46,10.36 a 6.8,6.8 0 0 0 -0.76,-1.66 c -12.68,-14.8 -24.45,-30.33 -36.75,-45.44 a 88.84,88.84 0 0 1 20.7,2.44 c 3.16,0.73 6.68,1.43 8.93,4.3 7.11,9.09 12.18,19.3 16.34,30 z"
         id="path128" />
      <path
         class="cls-7"
         d="m 387.74,175.73 c 12.3,15.11 24.07,30.64 36.75,45.44 a 6.8,6.8 0 0 1 0.76,1.66 42.8,42.8 0 0 1 -12.74,3.17 c -4.16,-5.86 -8.92,-11.26 -13.26,-17 A 126.36,126.36 0 0 0 385.5,193 c -2.38,-5.8 -0.83,-12.06 -2.12,-18 1.31,1.1 2.9,0.54 4.36,0.73 z"
         id="path130" />
      <path
         class="cls-12"
         d="m 120.08,307.76 c 7.66,-4.34 15.94,-7.39 23.83,-11.27 1.11,-0.55 2.24,-1.06 3.37,-1.59 1.6,-0.17 3.21,-0.26 4.79,-0.52 8.3,-1.36 16.6,-2.76 24.9,-4.15 -0.36,5.32 -1,10.62 -0.73,16 0.1,1.86 -0.9,2.3 -2.54,2.3 -17,0 -34.1,0 -51.15,0 a 9.52,9.52 0 0 1 -2.47,-0.77 z"
         id="path132" />
      <path
         class="cls-7"
         d="m 311.27,233.46 c -0.36,-3.12 -2.85,-5 -4.65,-7.05 -8.13,-9.38 -15.33,-19.49 -23.23,-29 a 51.28,51.28 0 0 1 9,-7.51 c 3.48,4.35 6.9,8.76 10.45,13 8.29,10 16.47,20.17 24.2,30.64 z"
         id="path134" />
      <path
         class="cls-15"
         d="m 327,233.55 c -7.73,-10.47 -15.91,-20.6 -24.2,-30.64 -3.55,-4.29 -7,-8.7 -10.45,-13 2.29,-2 4.53,-4 7.37,-5.22 4.32,2.32 6.79,6.52 9.61,10.17 9.53,12.34 19.52,24.31 29.29,36.45 a 3.65,3.65 0 0 1 1.1,2.29 z"
         id="path136" />
      <path
         class="cls-2"
         d="m 177,290.23 c -8.3,1.39 -16.6,2.79 -24.9,4.15 -1.58,0.26 -3.19,0.35 -4.79,0.52 1.52,-4.07 3.08,-8.12 4.57,-12.19 1.55,-4.24 4.53,-7.32 7.9,-10.11 A 53.6,53.6 0 0 1 177,267.87 c 4.11,0 8.23,0.26 12.34,0.07 2.75,-0.12 5.11,1 7.51,1.84 2.79,1 3.65,4.66 1.94,7.11 -4.62,6.6 -11.34,9.93 -18.82,12 -1.08,0.35 -2.24,0.36 -2.97,1.34 z m 0.11,-17.76 c -11.08,-0.39 -18.36,2.55 -21.21,15 -0.41,1.79 -1.27,2.64 1.83,2.53 5.3,-0.18 10.2,-2 15.35,-2.73 5.4,-0.75 10,-3.89 14.28,-7.21 a 4.17,4.17 0 0 0 1.56,-4.31 c -0.28,-1.61 -1.87,-1.27 -2.82,-1.87 -2.9,-1.88 -5.98,-1.27 -9.02,-1.41 z"
         id="path138" />
      <path
         class="cls-15"
         d="m 385.5,193 a 126.36,126.36 0 0 1 13.75,16 c 4.34,5.72 9.1,11.12 13.26,17 -1.47,2.73 -4.48,1.47 -6.66,2.26 -4.4,1.58 -9.15,2.33 -13.71,3.6 -2.51,0.7 -3.38,-0.18 -3.87,-3.11 -1.14,-6.9 -0.49,-13.94 -1.7,-20.7 C 385.67,203 385.75,198 385.5,193 Z"
         id="path140" />
      <path
         class="cls-1"
         d="m 387.74,175.73 c -1.46,-0.19 -3.05,0.37 -4.36,-0.75 -0.38,-6.79 -0.23,-6.81 6.59,-5.55 3.5,0.64 7.12,0.56 10.63,1.15 6.56,1.09 13.38,1.7 18.9,5.89 4.32,3.27 6.39,8.38 9.22,12.82 1.55,2.43 2.57,5.19 4.07,7.65 2.7,4.4 2.52,9.17 2.16,14 -0.05,0.79 -0.26,1.49 -1.24,1.54 -4.16,-10.71 -9.23,-20.92 -16.34,-30 -2.25,-2.87 -5.77,-3.57 -8.93,-4.3 a 88.84,88.84 0 0 0 -20.7,-2.45 z"
         id="path142" />
      <path
         class="cls-12"
         d="m 392.92,334.79 c -3.19,1.38 -6.57,0.66 -9.83,0.68 -18.56,0.16 -37.13,0.07 -55.7,0.06 a 8.42,8.42 0 0 1 -1.11,-0.14 c 1.17,-1.09 2.61,-0.62 3.94,-0.62 15.73,0 31.47,-0.16 47.2,0.06 3.7,0.05 4.28,-1.6 4.35,-4.55 0.15,-6.48 -0.57,-12.93 -0.7,-19.39 -0.23,-12.46 -0.68,-24.92 -1,-37.37 q -0.61,-23.52 -1.46,-47 c -0.54,-15.8 -1.21,-31.59 -1.52,-47.4 -0.08,-4.07 -0.61,-8.18 -0.58,-12.28 0,-2.26 -1,-3.16 -3.18,-3.08 -10.45,0.39 -20.91,-0.45 -31.39,0.6 -8.65,0.87 -17.24,1.76 -25.73,3.77 a 67.48,67.48 0 0 0 -18.83,7.65 c -1.3,0.77 -2.52,1.61 -4.13,1.5 v 0 c 8.47,-7.43 19,-9.93 29.6,-12 17,-3.25 34.15,-3.25 51.33,-3 2.84,0 4,1.22 3.87,4.13 -0.51,11.47 0.53,22.92 0.94,34.37 0.31,8.84 0.08,17.69 0.56,26.52 0.81,14.8 1,29.61 1.58,44.41 0.61,15.8 1.28,31.59 1.46,47.41 0.05,4.46 0.92,8.91 0.67,13.4 -0.11,1.89 0.93,2.31 2.56,2.27 2.36,-0.1 4.73,-0.02 7.1,0 z"
         id="path144" />
      <path
         class="cls-6"
         d="m 478.59,284.29 c 3.5,-0.33 4.93,1.1 4.62,4.73 -0.32,3.83 0,7.68 -1.18,11.46 -0.62,2 -1.5,3.35 -3.68,3.54 -8.9,-0.07 -8.9,-0.07 -8.82,-9.11 0,-0.25 0,-0.5 0,-0.75 0.12,-8.43 0.95,-9.34 9.06,-9.87 z"
         id="path146" />
      <path
         class="cls-1"
         d="m 459.05,262.69 a 8.37,8.37 0 0 1 -9,8.28 c -4,-0.16 -8.25,-3 -7.95,-9 0.24,-4.66 4.29,-8.87 8.81,-8.29 5.09,0.62 8.58,3.65 8.14,9.01 z"
         id="path148" />
      <path
         class="cls-1"
         d="m 370.4,245.33 c 0.26,7.75 0.26,7.76 -7.62,7.77 -4.46,0 -8.94,-0.13 -13.4,0.05 -2.79,0.12 -4.16,-0.63 -3.69,-3.67 a 27.85,27.85 0 0 0 0.05,-4.09 h 0.12 z"
         id="path150" />
      <path
         class="cls-12"
         d="m 232.85,237.78 c 0.82,-0.13 1.51,-0.05 1.57,1 -1.63,2.31 -0.39,4.82 -0.41,7.22 -0.07,10.86 0.09,21.72 -0.09,32.58 0,3.26 0.68,4.31 4.25,4.54 8.83,0.57 17.42,2.54 25.08,7.37 0.63,0.39 1.36,0.71 1.07,1.93 -3,-1.36 -6,-2.69 -9,-4 a 43.07,43.07 0 0 0 -18.82,-3.85 c -3.12,0.06 -4.12,-1.05 -4.09,-4.13 0.13,-12.48 0,-25 0.15,-37.44 0.06,-1.73 -1.64,-3.62 0.29,-5.22 z"
         id="path152" />
      <path
         class="cls-9"
         d="m 222.73,307 c -0.57,-0.19 -1.35,-0.72 -1.69,-0.08 -1.86,3.49 -6,4.62 -8,8 -0.89,1.53 -1.95,2.72 -1.27,4.68 1,2.9 -3.41,2.16 -3.24,4.6 1.71,-9.34 5.82,-17.31 13.32,-23.35 0.69,1.98 2.32,3.83 0.88,6.15 z"
         id="path154" />
      <path
         class="cls-12"
         d="m 284.2,335.45 h -1.42 a 60.87,60.87 0 0 0 -7,-29.68 c -1.76,-3.45 -5.17,-5.66 -6.58,-9.3 v 0 c 3.75,1.09 5.21,4.5 7,7.36 5.94,9.67 7.8,20.45 8,31.62 z"
         id="path156" />
      <path
         class="cls-15"
         d="m 362.72,168.09 h -25.8 c 3.75,-1.2 7.61,-0.55 11.41,-0.52 4.79,0.05 9.67,-0.7 14.39,0.52 z"
         id="path158" />
      <path
         class="cls-3"
         d="m 345.74,245.39 c -0.61,-0.59 -0.55,-1.26 0.28,-1.27 8,-0.13 15.93,-0.41 23.89,0.12 0.16,0 0.29,0.37 0.43,0.57 -5.36,0 -10.72,-0.15 -16.07,0 -2.8,0.08 -5.68,-0.79 -8.41,0.54 z"
         id="path160" />
      <path
         class="cls-6"
         d="m 345.86,245.35 c 2.73,-1.33 5.61,-0.46 8.41,-0.54 5.35,-0.15 10.71,0 16.07,0 a 0.68,0.68 0 0 1 0.06,0.52 z"
         id="path162" />
      <path
         class="cls-6"
         d="m 244.67,241.16 23.57,0.11 c -0.13,0.22 -0.25,0.44 -0.37,0.66 a 211.16,211.16 0 0 0 -21.35,-0.08 z"
         id="path164" />
      <path
         class="cls-15"
         d="m 246.52,241.85 a 211.16,211.16 0 0 1 21.35,0.08 108,108 0 0 1 -21.35,-0.08 z"
         id="path166" />
      <path
         class="cls-4"
         d="m 469.59,239.5 c 5.17,0 2,3.94 2.88,6 a 7.77,7.77 0 0 1 -2.88,-6 z"
         id="path168" />
      <path
         class="cls-12"
         d="m 272.24,194.48 a 14.89,14.89 0 0 1 -5.48,4.89 c 1.09,-2.48 2.3,-4.83 5.48,-4.89 z"
         id="path170" />
      <path
         class="cls-4"
         d="m 457.61,215.47 c 2.95,1 3,3.37 2.92,5.85 -1.63,-1.63 -3.16,-3.32 -2.92,-5.85 z"
         id="path172" />
      <path
         class="cls-12"
         d="m 251.14,215.44 a 3.44,3.44 0 0 1 -3.61,1.59 5.78,5.78 0 0 1 4.45,-4.55 v 0 c -0.27,0.99 -0.55,1.98 -0.84,2.96 z"
         id="path174" />
      <path
         class="cls-12"
         d="m 283.5,184.74 c -0.45,3.28 -3.67,3.17 -5.58,4.66 0.84,-2.8 3.41,-3.49 5.56,-4.68 z"
         id="path176" />
      <path
         class="cls-12"
         d="m 260.23,205 a 6,6 0 0 1 4.51,-4.5 v 0 a 6,6 0 0 1 -4.49,4.51 z"
         id="path178" />
      <path
         class="cls-12"
         d="m 284.23,184 c 1.47,-1.63 2.86,-3.39 5.25,-3.75 v 0 c -0.6,2.85 -3.18,2.94 -5.25,3.76 z"
         id="path180" />
      <path
         class="cls-12"
         d="m 269.24,296.48 c -2,-0.17 -2.7,-1.65 -4.27,-3.64 2.9,0.54 3.89,1.77 4.27,3.64 z"
         id="path182" />
      <path
         class="cls-12"
         d="m 255.74,208.74 a 4.39,4.39 0 0 1 -3.74,3.75 v 0 c 0.8,-1.71 1.66,-3.35 3.76,-3.75 z"
         id="path184" />
      <path
         class="cls-12"
         d="m 293.25,177.25 c -0.07,2.47 -2.44,2.06 -3.75,3 v 0 c 0.24,-2.26 2,-2.57 3.75,-3 z"
         id="path186" />
      <path
         class="cls-12"
         d="m 273.74,193 a 2.86,2.86 0 0 1 2.74,-2.78 2.76,2.76 0 0 1 -2.74,2.78 z"
         id="path188" />
      <path
         class="cls-12"
         d="m 258.75,206.49 a 3.58,3.58 0 0 1 -3,2.25 v 0 c 0.12,-1.92 1.37,-2.33 3,-2.26 z"
         id="path190" />
      <path
         class="cls-12"
         d="m 273.74,193 a 1.37,1.37 0 0 1 -1.5,1.5 v 0 a 1.35,1.35 0 0 1 1.5,-1.5 z"
         id="path192" />
      <path
         class="cls-12"
         d="m 231.73,235.08 c 1,0.42 0.84,1.35 0.91,2.17 -0.98,-0.44 -0.85,-1.34 -0.91,-2.17 z"
         id="path194" />
      <path
         class="cls-9"
         d="m 207.65,335.19 a 1,1 0 0 1 -1,0.91 z"
         id="path196" />
      <path
         class="cls-12"
         d="m 264.74,200.48 0.18,-0.32 z"
         id="path198" />
      <path
         class="cls-12"
         d="m 284.25,184 -0.75,0.74 v 0 l 0.75,-0.75 z"
         id="path200" />
      <path
         class="cls-12"
         d="m 260.25,205 -0.75,0.75 v 0 z"
         id="path202" />
      <path
         class="cls-12"
         d="m 259.5,205.74 -0.75,0.75 v 0 l 0.75,-0.74 z"
         id="path204" />
      <path
         class="cls-7"
         d="m 232.52,215.42 c -5.45,7.22 -11.61,13.51 -20.8,15.77 -4.1,-1.8 -5.76,-5.95 -8.43,-9.08 -5.37,-6.28 -10.49,-12.78 -15.38,-19.43 -4.32,-5.89 -9.54,-11.08 -13.36,-17.34 h 0.11 l 0.73,-0.81 c 5.31,-4.49 10.54,-9.14 18,-9.72 4.81,-0.63 8.84,0.52 11.62,4.84 1.46,2.25 3,4.45 4.68,6.55 7.67,9.71 15.57,19.21 22.83,29.22 z"
         id="path206" />
      <path
         class="cls-15"
         d="m 232.52,215.42 c -7.26,-10 -15.16,-19.51 -22.86,-29.18 -1.67,-2.1 -3.22,-4.3 -4.68,-6.55 -2.78,-4.32 -6.81,-5.47 -11.62,-4.84 1.32,-1 2.88,-0.62 4.33,-0.62 23.42,0 46.83,0 70.24,0.07 3.2,0 6.46,-0.67 9.62,0.43 -16.06,11.59 -29.7,25.82 -43.56,39.82 a 2.21,2.21 0 0 1 -1.47,0.87 z"
         id="path208" />
      <path
         class="cls-15"
         d="m 174.55,185.34 c 3.82,6.26 9,11.45 13.36,17.34 4.89,6.65 10,13.15 15.38,19.43 2.67,3.13 4.33,7.28 8.43,9.08 -0.81,1.14 -2,0.62 -3,0.63 q -43.44,0 -86.87,0 c -0.46,0 -1,0.18 -1.23,-0.48 2.49,-0.4 5.29,0.58 7.37,-1.73 2.08,-2.31 4.2,-4.58 6.37,-6.8 7.48,-7.64 14.57,-15.68 23,-22.34 1,0 1.47,0.71 2,1.42 6.11,7.81 12.17,15.67 18.44,23.36 1.8,2.21 3,5.6 6.19,5.92 4.4,0.43 8.87,0.11 13.88,0.11 -0.61,-0.87 -0.85,-1.26 -1.13,-1.61 -7.33,-9.22 -14.56,-18.52 -22.06,-27.6 -2.75,-3.33 -4.65,-7.39 -8.34,-9.93 a 35.79,35.79 0 0 1 8.21,-6.8 z m 32.23,45.66 0.05,-0.37 h -6.56 V 231 Z"
         id="path210" />
      <path
         class="cls-1"
         d="m 157.35,200.44 c -8.43,6.66 -15.52,14.7 -23,22.34 q -3.25,3.33 -6.37,6.8 c -2.08,2.31 -4.88,1.33 -7.37,1.73 -1,-0.95 -0.83,-1.57 0.09,-2.75 7.08,-9 15.54,-16.77 23.53,-24.94 A 268.48,268.48 0 0 1 171.17,179 c 5.56,-4.32 10.74,-9.35 18.09,-10.81 a 20.48,20.48 0 0 1 4,-0.56 q 45.73,-0.06 91.48,-0.05 c 0.59,0 1.18,0.12 2.67,0.28 -3.72,2.59 -6.8,4.73 -9.87,6.88 -3.16,-1.1 -6.42,-0.42 -9.62,-0.43 -23.41,-0.1 -46.82,-0.08 -70.24,-0.07 -1.45,0 -3,-0.39 -4.33,0.62 -7.43,0.58 -12.66,5.23 -18,9.72 l -0.73,0.81 h -0.11 a 35.79,35.79 0 0 0 -8.19,6.77 40.76,40.76 0 0 0 -8.97,8.28 z"
         id="path212" />
      <path
         class="cls-6"
         d="m 523.66,298.15 c -0.8,5.46 0.41,11 -0.67,16.44 -7.65,-8.87 -18.07,-15.41 -22.67,-26.89 a 9.74,9.74 0 0 1 -0.77,-3.94 c 6.28,7.75 15,11.4 24.11,14.39 z"
         id="path214" />
      <path
         class="cls-11"
         d="m 538.34,278.4 c 0.63,-4.26 2.39,-6 6.46,-6 q 41.19,-0.06 82.37,-0.08 c 3.17,0 5.37,1.23 6.06,4.36 a 43.38,43.38 0 0 1 -0.06,20.91 c -0.92,3.46 -3.82,4.6 -6.89,4.61 q -40.44,0.12 -80.87,0 c -4,0 -6.13,-1.85 -7.06,-5.7 q 0,-9.04 -0.01,-18.1 z"
         id="path216" />
      <path
         class="cls-15"
         d="m 538.24,247.08 c -0.75,-3.16 0.53,-4 3.67,-4 q 44,0.16 88,0 c 3.24,0 4,1.06 3.91,4.06 -0.13,8 0,8.05 -8.06,8.06 q -42.13,0 -84.27,0 c -1.65,-2.48 -2.36,-5.33 -3.25,-8.12 z"
         id="path218" />
      <path
         class="cls-4"
         d="m 517.59,254.23 c -1.09,-6.64 6.87,-10.79 12.52,-7.95 a 18.73,18.73 0 0 1 3.41,2.27 c 3.56,2.9 3.75,5.56 0.66,9 a 24.12,24.12 0 0 1 -3.73,3.63 c -2.05,1.44 -4,3.84 -6.94,2.55 -3.31,-1.43 -5.09,-4.23 -5.9,-7.66 a 6.87,6.87 0 0 1 -0.02,-1.84 z"
         id="path220" />
      <path
         class="cls-4"
         d="m 517.53,285.25 c 0,-4.17 3.64,-8.09 7.53,-8.09 4.26,0 8.81,3.28 8.89,6.41 0.09,3.56 -5.59,10.61 -8.57,10.63 -3.49,0.03 -7.84,-4.93 -7.85,-8.95 z"
         id="path222" />
      <path
         class="cls-4"
         d="m 526.11,208.06 a 5,5 0 0 1 5.14,2.52 c 1.29,2 -0.19,3.68 -1.19,5.44 -1.68,2.95 -4.4,4.73 -7,6.59 -1.89,1.35 -4.26,2.88 -6.55,1.38 -2.29,-1.5 -2.45,-4.51 -2.19,-7.07 0.55,-5.39 5.37,-8.98 11.79,-8.86 z"
         id="path224" />
      <path
         class="cls-16"
         d="m 529,232 v 4.29 c -2.17,-0.75 -3.22,-2.87 -5.87,-4.39 2.53,-0.25 4.2,-0.52 5.87,0.1 z"
         id="path226" />
      <path
         class="cls-2"
         d="m 586.49,157 h 42.34 c 4.9,0 4.91,0 4.91,5.08 v 67.82 c 0,4.8 -0.27,5.09 -5.09,5.1 q -41.22,0 -82.43,0 c -7.61,0 -8.84,-1.29 -8.15,-8.81 a 85.44,85.44 0 0 0 -0.12,-19 c -0.29,-2.14 0.63,-4.43 0.49,-6.63 -0.8,-12.5 -0.66,-25 -0.7,-37.52 0,-5.26 0.7,-6 6,-6 10.37,-0.05 20.73,0 31.1,0 z m -0.24,8.22 c -14.72,-0.11 -26,13.82 -21.6,27.24 4.2,12.85 12.23,23.63 20.08,34.44 0.91,1.25 1.56,1.21 2.48,-0.08 7.39,-10.37 15,-20.62 19.45,-32.71 A 21.55,21.55 0 0 0 586.25,165.2 Z"
         id="path228" />
      <path
         class="cls-15"
         d="m 585.71,148.73 c -14.61,0 -29.22,-0.06 -43.83,0.06 -3,0 -4.21,-0.81 -4.11,-4 0.3,-9.5 -1.07,-8.05 8.25,-8.07 28,-0.06 55.93,0 83.9,-0.09 3.22,0 4,1 3.92,4 -0.14,8.08 0,8.08 -8.06,8.08 z"
         id="path230" />
      <path
         class="cls-1"
         d="m 387.72,354 -33.94,0.05 c -1,0 -2,0.16 -2.8,-0.67 a 43.85,43.85 0 0 0 3.52,-9 l 0.21,-0.13 28.48,-0.11 c 2.33,2.95 2.98,6.63 4.53,9.86 z"
         id="path232" />
      <path
         class="cls-1"
         d="m 287.78,354 c -7.7,0 -15.41,0.41 -23.1,-0.23 3.88,-9.41 3.88,-9.41 14,-9.44 h 4.84 z"
         id="path234" />
      <path
         class="cls-9"
         d="m 383.19,344.19 -28.48,0.11 c 1.84,-1.21 3.89,-0.6 5.82,-0.55 7.55,0.17 15.13,-0.64 22.66,0.44 z"
         id="path236" />
      <path
         class="cls-4"
         d="m 261.27,334.57 c -0.35,7.52 -3,14.67 -10.06,19.55 a 16.37,16.37 0 0 1 -19.85,-0.66 c -11.61,-9 -12.18,-29.53 -1.1,-39.16 7.81,-6.79 18.45,-5.9 25.18,2.19 4.17,5.01 5.88,10.9 5.83,18.08 z m -21.57,9.95 c 0.11,-1.42 -3.52,-4.73 -4.43,-3.86 -2.32,2.23 -5.47,4.44 -6.18,7.19 -0.55,2.19 3.19,3.92 5.47,5.41 2.58,1.68 3.66,0.91 3.94,-2 0.21,-2.26 0.77,-4.42 1.2,-6.74 z m 19.91,-10.93 c 0,-6.83 -0.05,-6.91 -6.25,-4.5 -1.8,0.7 -3.92,0.74 -3.8,4 0.12,2.86 0.93,4 3.51,5 6.42,2.42 6.53,2.45 6.54,-4.5 z M 224,333.17 c -0.1,7 -0.07,7 6.22,4.61 0.12,0 0.24,-0.07 0.35,-0.12 1.71,-0.75 3.62,-0.81 3.5,-3.82 -0.11,-2.79 -0.84,-4.08 -3.42,-5 -6.59,-2.51 -6.59,-2.61 -6.65,4.33 z m 16,-10.94 c -0.48,-2.82 -1,-5.65 -1.42,-8.47 -0.13,-0.77 -0.27,-1.59 -1.34,-1.24 -3.15,1 -6.16,2.67 -7.71,5.54 -1.1,2 1.82,3.07 2.8,4.64 a 7.19,7.19 0 0 0 1.76,1.93 c 0.75,0.58 1.18,2.53 2.44,1.33 1.26,-1.2 3.79,-1.11 3.4,-3.73 z m 7.16,-9.45 c -1.51,-0.44 -1.58,0.63 -1.73,1.42 -0.44,2.19 -0.45,4.53 -1.27,6.56 -1.36,3.33 1.29,4.13 3,5.28 1.91,1.25 2.28,-1.2 3.28,-2 a 31.33,31.33 0 0 0 3.58,-3.78 c 0.46,-0.52 1.24,-1.07 0.6,-1.89 a 16.69,16.69 0 0 0 -7.53,-5.59 z m -3.38,32.37 c 0.42,2.37 0.93,5.19 1.41,8 0.11,0.67 0.3,1.33 1.09,1.14 a 13,13 0 0 0 7.87,-5.38 c 1.26,-1.91 -1.42,-2.78 -2.26,-4.14 a 10.48,10.48 0 0 0 -2.22,-2.52 c -0.74,-0.63 -1.22,-2.52 -2.5,-1.39 -1.28,1.13 -3.92,1.19 -3.46,4.29 z"
         id="path238" />
      <path
         class="cls-1"
         d="m 201,354.05 q -17,0 -33.89,0 c -1,0 -2,0.28 -2.79,-0.61 3.83,-9.22 3.83,-9.19 13.91,-9.18 5.58,0 11.17,-0.12 16.75,-0.19 l 1.57,-0.06 0.72,0.28 0.14,0.12 c 0.15,0.33 0.3,0.67 0.46,1 0.24,3.2 2.64,5.59 3.13,8.64 z"
         id="path240" />
      <path
         class="cls-9"
         d="m 197.89,345.44 c -0.16,-0.33 -0.31,-0.67 -0.46,-1 0.15,0.33 0.3,0.67 0.46,1 z"
         id="path242" />
      <path
         class="cls-9"
         d="m 197.29,344.32 -0.72,-0.28 z"
         id="path244" />
      <path
         class="cls-2"
         d="m 546.82,117.26 c 1.54,0.27 2.86,1.13 2.62,3.09 a 2.89,2.89 0 0 1 -3.34,2.7 2.71,2.71 0 0 1 -2.68,-3 c 0.13,-1.71 1.17,-2.88 3.4,-2.79 z"
         id="path246" />
      <path
         class="cls-2"
         d="m 560,120.11 c -0.23,1.55 -0.89,2.91 -2.69,3 a 2.9,2.9 0 0 1 -3.34,-2.8 2.71,2.71 0 0 1 2.65,-3 c 1.99,-0.22 2.9,0.97 3.38,2.8 z"
         id="path248" />
      <path
         class="cls-2"
         d="m 538.94,120.12 c -0.23,1.55 -0.88,2.91 -2.7,3 -1.82,0.09 -3.25,-0.88 -3.33,-2.79 a 2.75,2.75 0 0 1 2.66,-3 c 2.05,-0.27 2.92,0.97 3.37,2.79 z"
         id="path250" />
      <path
         class="cls-13"
         d="M 300.09,81.29 C 284.31,81.21 269.19,67.37 270.23,52.58 271.38,36.12 280.88,23 300.56,22.24 c 15.79,-0.61 29.42,13.63 29.36,29.83 a 29.5,29.5 0 0 1 -29.83,29.22 z"
         id="path252" />
      <path
         class="cls-8"
         d="m 426.36,344.66 c -0.49,2.56 -1.07,5.23 -1.49,7.92 -0.28,1.8 -1.11,2 -2.52,1.21 -0.21,-0.13 -0.46,-0.19 -0.67,-0.32 -2.47,-1.45 -6.2,-3.07 -5.95,-5.57 0.3,-2.89 3.81,-5 6.12,-7.18 0.99,-0.95 4.63,2.19 4.51,3.94 z"
         id="path254" />
      <path
         class="cls-8"
         d="m 430.59,322 c 0.47,-2.58 1,-5.13 1.39,-7.71 0.27,-1.86 1.21,-1.89 2.58,-1.22 a 3.36,3.36 0 0 1 0.33,0.16 c 2.62,1.44 6.42,3.06 6.26,5.74 -0.16,2.86 -3.87,4.84 -6,7.2 -0.92,1 -1.54,-0.2 -2.1,-0.7 -1.05,-0.98 -3.37,-1.14 -2.46,-3.47 z"
         id="path256" />
      <path
         class="cls-8"
         d="m 446.28,333.46 c 0,7.16 0,7.16 -6.74,4.46 -1.85,-0.74 -3.42,-1.1 -3.28,-4 0.14,-2.66 0.65,-4.21 3.3,-4.72 a 1.47,1.47 0 0 0 0.34,-0.15 c 6.39,-2.36 6.39,-2.36 6.38,4.41 z"
         id="path258" />
      <path
         class="cls-8"
         d="m 420.54,333.24 c 0,2.78 -4.34,6.55 -8,5.94 -3.35,-0.55 -1.71,-4.06 -1.78,-6.15 -0.07,-2.09 -1.26,-5.3 1.78,-5.85 3.37,-0.6 8.04,3.47 8,6.06 z"
         id="path260" />
      <path
         class="cls-8"
         d="m 426.75,323.2 c 0.11,1.68 -2.49,1.61 -3.67,2.82 -1.18,1.21 -1.56,-0.6 -2.18,-1.17 a 14.84,14.84 0 0 1 -2.73,-3 c -0.8,-1.29 -3.45,-2.08 -1.88,-4.12 a 13.07,13.07 0 0 1 7.95,-5.15 c 0.67,-0.13 0.85,0.73 0.95,1.36 0.46,2.78 0.94,5.59 1.56,9.26 z"
         id="path262" />
      <path
         class="cls-8"
         d="m 433.88,340.63 c 1,-0.18 1.34,0.47 1.74,0.9 a 22.59,22.59 0 0 1 2.49,2.79 c 1,1.45 3.7,2.57 2.72,4.38 -1.55,2.86 -4.48,4.62 -7.69,5.57 -1.34,0.39 -1.3,-0.78 -1.44,-1.59 -0.44,-2.46 -0.71,-4.95 -1.29,-7.36 -0.8,-3.32 2.66,-3.03 3.47,-4.69 z"
         id="path264" />
      <path
         class="cls-15"
         d="m 256.58,219.63 a 1.46,1.46 0 0 1 2,1.09 1.68,1.68 0 0 1 -1.54,2.13 c -7.2,1.41 -13.35,4.53 -17.61,10.76 -0.5,0.73 -1.19,1.36 -2.16,0.55 -0.97,-0.81 -0.93,-1.5 -0.3,-2.58 2.74,-4.58 14.39,-11.81 19.61,-11.95 z"
         id="path266" />
      <path
         class="cls-13"
         d="m 177.08,272.47 c 3,0.14 6.12,-0.43 9,1.39 1,0.6 2.54,0.26 2.82,1.87 a 4.17,4.17 0 0 1 -1.56,4.31 c -4.31,3.32 -8.88,6.46 -14.28,7.21 C 167.9,288 163,289.8 157.7,290 c -3.1,0.11 -2.24,-0.74 -1.83,-2.53 2.85,-12.47 10.13,-15.39 21.21,-15 z"
         id="path268" />
      <path
         class="cls-15"
         d="m 174.66,185.38 0.73,-0.81 z"
         id="path270" />
      <path
         class="cls-7"
         d="m 157.35,200.44 a 40.76,40.76 0 0 1 9,-8.33 c 3.69,2.54 5.59,6.6 8.34,9.93 7.5,9.08 14.73,18.38 22.06,27.6 0.28,0.35 0.52,0.74 1.13,1.61 -5,0 -9.48,0.32 -13.88,-0.11 -3.21,-0.32 -4.39,-3.71 -6.19,-5.92 -6.27,-7.69 -12.33,-15.55 -18.44,-23.36 -0.55,-0.71 -1,-1.43 -2.02,-1.42 z"
         id="path272" />
      <path
         class="cls-7"
         d="m 206.78,231 h -6.51 v -0.37 h 6.56 z"
         id="path274" />
      <path
         class="cls-1"
         d="m 586.25,165.2 a 21.55,21.55 0 0 1 20.41,28.89 c -4.4,12.09 -12.06,22.34 -19.45,32.71 -0.92,1.29 -1.57,1.33 -2.48,0.08 -7.85,-10.81 -15.88,-21.59 -20.08,-34.44 -4.4,-13.44 6.88,-27.35 21.6,-27.24 z m -0.1,34.63 a 12.47203,12.47203 0 1 0 -0.45,-24.94 12.47203,12.47203 0 1 0 0.45,24.94 z"
         id="path276" />
      <path
         class="cls-8"
         d="m 239.7,344.52 c -0.43,2.32 -1,4.5 -1.2,6.71 -0.28,2.94 -1.36,3.71 -3.94,2 -2.28,-1.49 -6,-3.22 -5.47,-5.41 0.71,-2.75 3.86,-5 6.18,-7.19 0.91,-0.84 4.54,2.47 4.43,3.89 z"
         id="path278" />
      <path
         class="cls-8"
         d="m 259.61,333.59 c 0,7 -0.12,6.92 -6.54,4.48 -2.58,-1 -3.39,-2.13 -3.51,-5 -0.12,-3.25 2,-3.29 3.8,-4 6.2,-2.39 6.27,-2.31 6.25,4.52 z"
         id="path280" />
      <path
         class="cls-8"
         d="m 224,333.17 c 0.09,-6.94 0.09,-6.84 6.65,-4.38 2.58,1 3.31,2.26 3.42,5 0.12,3 -1.79,3.07 -3.5,3.82 -0.11,0 -0.23,0.07 -0.35,0.12 -6.32,2.43 -6.35,2.41 -6.22,-4.56 z"
         id="path282" />
      <path
         class="cls-8"
         d="m 239.93,322.23 c 0.39,2.62 -2.25,2.58 -3.47,3.73 -1.22,1.15 -1.69,-0.75 -2.44,-1.33 a 7.19,7.19 0 0 1 -1.76,-1.93 c -1,-1.57 -3.9,-2.6 -2.8,-4.64 1.55,-2.87 4.56,-4.51 7.71,-5.54 1.07,-0.35 1.21,0.47 1.34,1.24 0.49,2.82 0.94,5.65 1.42,8.47 z"
         id="path284" />
      <path
         class="cls-8"
         d="m 247.09,312.78 a 16.69,16.69 0 0 1 7.51,5.6 c 0.64,0.82 -0.14,1.37 -0.6,1.89 a 31.33,31.33 0 0 1 -3.58,3.78 c -1,0.79 -1.37,3.24 -3.28,2 -1.76,-1.15 -4.41,-2 -3,-5.28 0.82,-2 0.83,-4.37 1.27,-6.56 0.1,-0.8 0.17,-1.87 1.68,-1.43 z"
         id="path286" />
      <path
         class="cls-8"
         d="m 243.71,345.15 c -0.46,-3.1 2.14,-3.17 3.39,-4.27 1.25,-1.1 1.76,0.76 2.5,1.39 a 10.48,10.48 0 0 1 2.22,2.52 c 0.84,1.36 3.52,2.23 2.26,4.14 a 13,13 0 0 1 -7.87,5.38 c -0.79,0.19 -1,-0.47 -1.09,-1.14 -0.48,-2.83 -0.99,-5.65 -1.41,-8.02 z"
         id="path288" />
      <path
         class="cls-13"
         d="m 586.15,199.83 a 12.47203,12.47203 0 1 1 -0.45,-24.94 12.47203,12.47203 0 1 1 0.45,24.94 z"
         id="path290" />
    </g>
  </g>
</svg>
